<svg width="1025" height="206" viewBox="0 0 1025 206" fill="none" xmlns="http://www.w3.org/2000/svg">
<path d="M127.664 32.9925C126.119 32.9925 124.59 32.8715 123.075 32.6295C121.561 32.4177 120.243 32.1152 119.123 31.7219C118.638 31.5706 118.305 31.3739 118.123 31.1319C117.972 30.8596 117.896 30.436 117.896 29.8612V26.1853C117.896 25.3684 118.214 24.96 118.85 24.96C119.001 24.96 119.38 25.0356 119.986 25.1869C121.167 25.4592 122.485 25.6861 123.938 25.8676C125.392 26.0491 126.664 26.1399 127.755 26.1399C129.33 26.1399 130.496 25.9432 131.253 25.5499C132.01 25.1264 132.389 24.4759 132.389 23.5985C132.389 23.1144 132.283 22.7211 132.071 22.4186C131.889 22.116 131.51 21.8286 130.935 21.5563C130.39 21.2538 129.466 20.8756 128.164 20.4218L125.528 19.5142C122.651 18.5158 120.576 17.2602 119.304 15.7475C118.032 14.2347 117.396 12.2531 117.396 9.80246C117.396 7.80566 117.941 6.06603 119.032 4.58356C120.122 3.10109 121.606 1.96654 123.484 1.17993C125.392 0.393309 127.573 0 130.026 0C131.359 0 132.722 0.105892 134.115 0.317674C135.508 0.529455 136.75 0.831999 137.841 1.22531C138.325 1.37658 138.643 1.58836 138.795 1.86065C138.976 2.10269 139.067 2.51113 139.067 3.08596V6.53497C139.067 7.35185 138.749 7.76028 138.113 7.76028C137.962 7.76028 137.583 7.68465 136.977 7.53337C135.069 7.01905 132.994 6.76188 130.753 6.76188C127.633 6.76188 126.074 7.57876 126.074 9.2125C126.074 9.81759 126.346 10.3319 126.891 10.7555C127.437 11.179 128.436 11.6329 129.89 12.1169L132.616 13.0246C135.736 14.0532 137.947 15.2937 139.249 16.7459C140.582 18.1678 141.248 20.0739 141.248 22.464C141.248 25.792 140.052 28.3787 137.659 30.2243C135.296 32.0698 131.965 32.9925 127.664 32.9925Z" fill="#FF9900"/>
<path d="M80.2489 32.221C79.734 32.221 79.3554 32.1303 79.1131 31.9487C78.9011 31.7672 78.7345 31.4344 78.6133 30.9503L70.8899 2.9044C70.7384 2.39007 70.6627 1.96651 70.6627 1.63371C70.6627 1.05887 71.011 0.771454 71.7077 0.771454H78.5679C79.1131 0.771454 79.5068 0.892471 79.7492 1.13451C79.9915 1.34629 80.158 1.7396 80.2489 2.31443L83.7472 22.5093L87.9724 2.67749C88.0935 2.16316 88.2601 1.83036 88.4721 1.67909C88.7144 1.49756 89.093 1.4068 89.6079 1.4068H95.7867C96.3319 1.4068 96.7105 1.49756 96.9225 1.67909C97.1345 1.83036 97.3011 2.16316 97.4223 2.67749L101.647 22.827L105.191 2.31443C105.282 1.7396 105.449 1.34629 105.691 1.13451C105.933 0.892471 106.327 0.771454 106.872 0.771454H113.414C114.111 0.771454 114.459 1.05887 114.459 1.63371C114.459 1.96651 114.384 2.39007 114.232 2.9044L106.554 30.9503C106.403 31.4344 106.206 31.7672 105.964 31.9487C105.751 32.1303 105.403 32.221 104.919 32.221H98.3309C97.8463 32.221 97.4828 32.1303 97.2405 31.9487C96.9982 31.7672 96.8165 31.4344 96.6953 30.9503L92.5156 11.6631L88.4267 30.9503C88.3358 31.4344 88.1692 31.7672 87.9269 31.9487C87.6846 32.1303 87.306 32.221 86.7911 32.221H80.2489Z" fill="#FF9900"/>
<path d="M58.4191 19.9679L55.148 8.30483L51.9677 19.9679H58.4191ZM40.9277 32.221C40.1402 32.221 39.7465 31.9185 39.7465 31.3134C39.7465 31.0713 39.8676 30.6175 40.1099 29.9519L50.1504 1.86062C50.3019 1.43705 50.4836 1.14964 50.6956 0.998363C50.9076 0.84709 51.2559 0.771454 51.7406 0.771454H59.0097C59.4943 0.771454 59.8426 0.84709 60.0546 0.998363C60.2667 1.14964 60.4484 1.43705 60.5998 1.86062L70.6858 29.9519C70.9281 30.6175 71.0492 31.0713 71.0492 31.3134C71.0492 31.9185 70.6555 32.221 69.868 32.221H63.0532C62.5686 32.221 62.2051 32.1303 61.9628 31.9487C61.7508 31.7672 61.569 31.4041 61.4176 30.8596L60.0546 26.1399H50.3322L49.0146 30.8596C48.8632 31.4041 48.6663 31.7672 48.424 31.9487C48.212 32.1303 47.8637 32.221 47.3791 32.221H40.9277Z" fill="#FF9900"/>
<path d="M309.411 88.9726C307.935 88.9726 306.679 88.8132 305.641 88.4944C305.123 88.335 304.784 88.1159 304.624 87.8369C304.465 87.5978 304.385 87.1794 304.385 86.5817V84.5495C304.385 83.7526 304.704 83.3541 305.342 83.3541C305.542 83.3541 305.781 83.374 306.06 83.4139C306.34 83.4537 306.798 83.4736 307.437 83.4736C309.152 83.4736 310.428 83.1549 311.266 82.5173C312.104 81.9196 312.922 80.5449 313.719 78.3931L314.497 76.3011L303.188 47.3121C303.029 46.9136 302.949 46.5949 302.949 46.3558C302.949 45.7979 303.308 45.519 304.026 45.519H308.873C309.71 45.519 310.229 45.8975 310.428 46.6546L317.848 69.6067L325.388 46.6546C325.587 45.8975 326.106 45.519 326.944 45.519H331.491C332.209 45.519 332.568 45.7979 332.568 46.3558C332.568 46.5949 332.488 46.9136 332.329 47.3121L319.284 80.7839C318.167 83.6928 316.851 85.7848 315.335 87.0599C313.819 88.335 311.845 88.9726 309.411 88.9726Z" fill="white"/>
<path d="M294.797 76.3609C291.646 76.3609 289.312 75.6237 287.796 74.1493C286.28 72.675 285.522 70.4236 285.522 67.3952V50.8984H281.693C280.815 50.8984 280.376 50.4601 280.376 49.5834V47.8501C280.376 47.332 280.476 46.9734 280.676 46.7742C280.875 46.5351 281.194 46.3757 281.633 46.296L285.762 45.6983L286.659 38.466C286.699 37.9878 286.839 37.6491 287.078 37.4499C287.318 37.2507 287.677 37.151 288.155 37.151H291.267C292.145 37.151 292.583 37.5894 292.583 38.466V45.519H299.943C300.821 45.519 301.26 45.9573 301.26 46.834V49.5834C301.26 50.4601 300.821 50.8984 299.943 50.8984H292.583V67.0366C292.583 68.3914 292.902 69.3677 293.541 69.9654C294.219 70.5232 295.336 70.8022 296.892 70.8022C297.809 70.8022 298.547 70.7424 299.106 70.6229C299.664 70.5033 300.123 70.4435 300.482 70.4435C301.16 70.4435 301.499 70.8221 301.499 71.5792V73.731C301.499 74.3685 301.379 74.8268 301.14 75.1057C300.941 75.3448 300.542 75.544 299.943 75.7034C298.268 76.1417 296.553 76.3609 294.797 76.3609Z" fill="white"/>
<path d="M271.13 75.9425C270.252 75.9425 269.813 75.5041 269.813 74.6275V46.8339C269.813 45.9573 270.252 45.519 271.13 45.519H275.558C276.435 45.519 276.874 45.9573 276.874 46.8339V74.6275C276.874 75.5041 276.435 75.9425 275.558 75.9425H271.13ZM273.344 40.4982C272.027 40.4982 270.99 40.1396 270.232 39.4223C269.474 38.7051 269.095 37.7089 269.095 36.4338C269.095 35.1586 269.474 34.1625 270.232 33.4452C270.99 32.728 272.027 32.3693 273.344 32.3693C274.66 32.3693 275.697 32.728 276.455 33.4452C277.213 34.1625 277.592 35.1586 277.592 36.4338C277.592 37.7089 277.213 38.7051 276.455 39.4223C275.697 40.1396 274.66 40.4982 273.344 40.4982Z" fill="white"/>
<path d="M237.04 75.9425C236.162 75.9425 235.724 75.5042 235.724 74.6275V46.834C235.724 45.9573 236.162 45.519 237.04 45.519H240.211C240.77 45.519 241.149 45.5987 241.348 45.7581C241.588 45.9175 241.747 46.2163 241.827 46.6546L242.306 48.8662C246.056 46.037 249.965 44.6224 254.034 44.6224C256.946 44.6224 259.16 45.3994 260.676 46.9535C262.192 48.4677 262.95 50.6792 262.95 53.5881V74.6275C262.95 75.5042 262.511 75.9425 261.633 75.9425H257.205C256.328 75.9425 255.889 75.5042 255.889 74.6275V55.7996C255.889 53.8471 255.49 52.4325 254.692 51.5559C253.894 50.6394 252.618 50.1811 250.863 50.1811C248.23 50.1811 245.537 51.0578 242.784 52.8111V74.6275C242.784 75.5042 242.346 75.9425 241.468 75.9425H237.04Z" fill="white"/>
<path d="M211.131 76.839C208.299 76.839 206.105 76.062 204.549 74.508C203.033 72.9141 202.275 70.6428 202.275 67.6941V46.8339C202.275 45.9573 202.714 45.519 203.592 45.519H208.02C208.897 45.519 209.336 45.9573 209.336 46.8339V65.6021C209.336 67.5546 209.735 68.9891 210.533 69.9056C211.331 70.8221 212.607 71.2803 214.363 71.2803C216.836 71.2803 219.329 70.4635 221.842 68.8297V46.8339C221.842 45.9573 222.281 45.519 223.159 45.519H227.587C228.464 45.519 228.903 45.9573 228.903 46.8339V74.6275C228.903 75.5042 228.464 75.9425 227.587 75.9425H224.415C223.857 75.9425 223.458 75.8628 223.219 75.7034C223.019 75.544 222.879 75.2451 222.8 74.8068L222.321 72.5953C218.571 75.4245 214.841 76.839 211.131 76.839Z" fill="white"/>
<path d="M151.634 75.9425C150.756 75.9425 150.317 75.5042 150.317 74.6275V46.834C150.317 45.9573 150.756 45.519 151.634 45.519H154.805C155.324 45.519 155.703 45.6186 155.942 45.8178C156.181 45.9772 156.341 46.296 156.421 46.7742L156.84 48.5673C158.834 47.2125 160.709 46.2163 162.464 45.5788C164.26 44.9412 166.055 44.6224 167.85 44.6224C171.56 44.6224 174.113 45.9972 175.509 48.7466C179.498 45.9972 183.328 44.6224 186.998 44.6224C189.83 44.6224 192.024 45.3994 193.58 46.9535C195.136 48.4677 195.914 50.6792 195.914 53.5881V74.6275C195.914 75.5042 195.475 75.9425 194.597 75.9425H190.169C189.292 75.9425 188.853 75.5042 188.853 74.6275V55.3215C188.853 53.4885 188.494 52.1735 187.776 51.3766C187.058 50.5796 185.881 50.1811 184.245 50.1811C183.009 50.1811 181.692 50.4003 180.296 50.8386C178.9 51.2371 177.683 51.7551 176.646 52.3927V74.6275C176.646 75.5042 176.207 75.9425 175.329 75.9425H170.901C170.024 75.9425 169.585 75.5042 169.585 74.6275V55.3215C169.585 53.4885 169.226 52.1735 168.508 51.3766C167.79 50.5796 166.613 50.1811 164.978 50.1811C163.821 50.1811 162.564 50.3804 161.208 50.7788C159.891 51.1375 158.615 51.6754 157.378 52.3927V74.6275C157.378 75.5042 156.939 75.9425 156.062 75.9425H151.634Z" fill="white"/>
<path d="M99.3765 75.9425C98.4989 75.9425 98.0601 75.5042 98.0601 74.6275V46.834C98.0601 45.9573 98.4989 45.519 99.3765 45.519H102.548C103.066 45.519 103.445 45.6186 103.685 45.8178C103.924 45.9772 104.084 46.296 104.163 46.7742L104.582 48.5673C106.577 47.2125 108.452 46.2163 110.207 45.5788C112.002 44.9412 113.797 44.6224 115.592 44.6224C119.302 44.6224 121.855 45.9972 123.252 48.7466C127.241 45.9972 131.07 44.6224 134.74 44.6224C137.573 44.6224 139.767 45.3994 141.323 46.9535C142.878 48.4677 143.656 50.6792 143.656 53.5881V74.6275C143.656 75.5042 143.217 75.9425 142.34 75.9425H137.912C137.034 75.9425 136.595 75.5042 136.595 74.6275V55.3215C136.595 53.4885 136.236 52.1735 135.518 51.3766C134.8 50.5796 133.623 50.1811 131.988 50.1811C130.751 50.1811 129.435 50.4003 128.039 50.8386C126.642 51.2371 125.426 51.7551 124.389 52.3927V74.6275C124.389 75.5042 123.95 75.9425 123.072 75.9425H118.644C117.767 75.9425 117.328 75.5042 117.328 74.6275V55.3215C117.328 53.4885 116.969 52.1735 116.251 51.3766C115.533 50.5796 114.356 50.1811 112.72 50.1811C111.563 50.1811 110.307 50.3804 108.95 50.7788C107.634 51.1375 106.358 51.6754 105.121 52.3927V74.6275C105.121 75.5042 104.682 75.9425 103.804 75.9425H99.3765Z" fill="white"/>
<path d="M78.0752 76.8391C73.4478 76.8391 69.8376 75.4245 67.2447 72.5953C64.6517 69.7263 63.3552 65.7615 63.3552 60.7009C63.3552 55.6402 64.6517 51.6953 67.2447 48.8662C69.8376 46.037 73.4478 44.6224 78.0752 44.6224C82.7027 44.6224 86.3129 46.037 88.9058 48.8662C91.4988 51.6953 92.7953 55.6402 92.7953 60.7009C92.7953 65.7615 91.4988 69.7263 88.9058 72.5953C86.3129 75.4245 82.7027 76.8391 78.0752 76.8391ZM78.0752 71.2803C83.1016 71.2803 85.6148 67.7538 85.6148 60.7009C85.6148 53.6877 83.1016 50.1811 78.0752 50.1811C73.0489 50.1811 70.5357 53.6877 70.5357 60.7009C70.5357 67.7538 73.0489 71.2803 78.0752 71.2803Z" fill="white"/>
<path d="M52.7523 76.6C48.085 76.6 44.4947 75.2452 41.9816 72.5355C39.4684 69.8259 38.2118 65.9806 38.2118 60.9997C38.2118 55.8992 39.5083 51.9344 42.1012 49.1053C44.6942 46.2761 48.3243 44.8615 52.9917 44.8615C55.3852 44.8615 57.5393 45.2201 59.4541 45.9374C60.0525 46.1765 60.4514 46.4355 60.6509 46.7144C60.8503 46.9535 60.95 47.3918 60.95 48.0294V50.1811C60.95 50.9781 60.6508 51.3766 60.0525 51.3766C59.853 51.3766 59.4541 51.2969 58.8557 51.1375C57.2601 50.6992 55.6843 50.48 54.1286 50.48C51.1367 50.48 48.9227 51.2969 47.4866 52.9306C46.0904 54.5245 45.3923 57.015 45.3923 60.402V61.179C45.3923 64.5262 46.0904 66.9967 47.4866 68.5906C48.9227 70.1845 51.1367 70.9815 54.1286 70.9815C55.4849 70.9815 57.1204 70.7623 59.0352 70.324C59.3943 70.2443 59.6536 70.1845 59.8131 70.1447C59.9727 70.1048 60.1323 70.0849 60.2918 70.0849C60.8902 70.0849 61.1894 70.4834 61.1894 71.2803V73.3723C61.1894 74.0099 61.0897 74.4681 60.8902 74.7471C60.6907 74.9861 60.2918 75.2252 59.6935 75.4643C57.5792 76.2214 55.2655 76.6 52.7523 76.6Z" fill="white"/>
<path d="M986.041 153.468C989.576 153.468 992.339 152.409 994.332 150.29C996.324 148.171 997.32 145.218 997.32 141.431C997.32 137.579 996.292 134.658 994.235 132.668C992.179 130.613 989.19 129.586 985.27 129.586C981.028 129.586 976.722 130.709 972.351 132.956C972.801 146.631 977.364 153.468 986.041 153.468ZM985.27 162.616C977.3 162.616 971.259 159.888 967.145 154.431C963.096 148.974 961.072 140.917 961.072 130.26C961.072 118.448 963.482 109.267 968.302 102.719C973.187 96.1706 980.032 92.8965 988.837 92.8965C993.464 92.8965 997.802 93.6348 1001.85 95.1113C1002.88 95.4323 1003.55 95.8175 1003.88 96.2669C1004.2 96.7163 1004.36 97.4225 1004.36 98.3855V102.141C1004.36 102.847 1004.23 103.361 1003.97 103.682C1003.78 103.939 1003.39 104.067 1002.82 104.067C1002.37 104.067 1001.66 103.939 1000.69 103.682C996.517 102.59 993.046 102.045 990.283 102.045C984.434 102.045 980.064 103.971 977.172 107.823C974.279 111.675 972.673 117.613 972.351 125.638C977.493 122.364 982.956 120.727 988.74 120.727C994.782 120.727 999.634 122.556 1003.3 126.216C1006.96 129.811 1008.79 134.626 1008.79 140.66C1008.79 145.09 1007.76 148.974 1005.71 152.312C1003.72 155.651 1000.95 158.219 997.417 160.016C993.882 161.749 989.833 162.616 985.27 162.616Z" fill="white"/>
<path d="M912.876 161.172C911.462 161.172 910.755 160.466 910.755 159.053V155.105C910.755 154.014 910.851 153.211 911.044 152.697C911.301 152.12 911.783 151.478 912.49 150.772C920.202 142.875 926.083 136.648 930.132 132.09C934.181 127.467 937.073 123.648 938.808 120.63C940.544 117.549 941.411 114.66 941.411 111.963C941.411 109.01 940.544 106.731 938.808 105.126C937.073 103.457 934.631 102.623 931.482 102.623C927.111 102.623 922.034 104.324 916.25 107.726C915.157 108.368 914.386 108.689 913.936 108.689C913.036 108.689 912.586 108.047 912.586 106.763V102.237C912.586 101.403 912.715 100.793 912.972 100.408C913.229 99.9583 913.775 99.4447 914.611 98.867C920.138 94.8866 926.276 92.8965 933.024 92.8965C937.202 92.8965 940.801 93.6669 943.821 95.2076C946.906 96.6842 949.252 98.7707 950.859 101.467C952.466 104.163 953.269 107.309 953.269 110.904C953.269 114.307 952.402 117.773 950.666 121.304C948.995 124.771 946.071 128.912 941.893 133.727C937.78 138.477 931.771 144.576 923.866 152.023H954.137C955.551 152.023 956.258 152.73 956.258 154.142V159.053C956.258 160.466 955.551 161.172 954.137 161.172H912.876Z" fill="white"/>
<path d="M881.357 153.179C885.92 153.179 889.23 151.157 891.287 147.112C893.408 143.068 894.468 136.616 894.468 127.756C894.468 118.897 893.408 112.445 891.287 108.4C889.23 104.356 885.92 102.334 881.357 102.334C876.794 102.334 873.452 104.356 871.331 108.4C869.274 112.445 868.246 118.897 868.246 127.756C868.246 136.616 869.274 143.068 871.331 147.112C873.452 151.157 876.794 153.179 881.357 153.179ZM881.357 162.616C873.388 162.616 867.25 159.631 862.944 153.66C858.702 147.626 856.581 138.991 856.581 127.756C856.581 116.522 858.702 107.919 862.944 101.948C867.25 95.9138 873.388 92.8965 881.357 92.8965C889.327 92.8965 895.432 95.9138 899.674 101.948C903.98 107.919 906.133 116.522 906.133 127.756C906.133 138.991 903.98 147.626 899.674 153.66C895.432 159.631 889.327 162.616 881.357 162.616Z" fill="white"/>
<path d="M809.542 161.172C808.128 161.172 807.421 160.466 807.421 159.053V155.105C807.421 154.014 807.517 153.211 807.71 152.697C807.967 152.12 808.449 151.478 809.156 150.772C816.868 142.875 822.749 136.648 826.798 132.09C830.847 127.467 833.739 123.648 835.474 120.63C837.21 117.549 838.077 114.66 838.077 111.963C838.077 109.01 837.21 106.731 835.474 105.126C833.739 103.457 831.297 102.623 828.148 102.623C823.777 102.623 818.7 104.324 812.916 107.726C811.823 108.368 811.052 108.689 810.602 108.689C809.702 108.689 809.252 108.047 809.252 106.763V102.237C809.252 101.403 809.381 100.793 809.638 100.408C809.895 99.9583 810.441 99.4447 811.277 98.867C816.804 94.8866 822.942 92.8965 829.69 92.8965C833.868 92.8965 837.467 93.6669 840.488 95.2076C843.572 96.6842 845.918 98.7707 847.525 101.467C849.132 104.163 849.935 107.309 849.935 110.904C849.935 114.307 849.068 117.773 847.332 121.304C845.661 124.771 842.737 128.912 838.559 133.727C834.446 138.477 828.437 144.576 820.532 152.023H850.803C852.217 152.023 852.924 152.73 852.924 154.142V159.053C852.924 160.466 852.217 161.172 850.803 161.172H809.542Z" fill="white"/>
<path d="M753.441 162.616C748.943 162.616 745.279 161.268 742.451 158.572C739.688 155.875 738.306 152.376 738.306 148.075C738.306 143.324 740.009 139.537 743.415 136.712C746.886 133.887 751.513 132.475 757.298 132.475C760.704 132.475 764.432 132.956 768.481 133.919V128.238C768.481 124.964 767.774 122.685 766.36 121.401C764.946 120.117 762.471 119.475 758.937 119.475C756.816 119.475 754.47 119.699 751.899 120.149C749.328 120.534 746.886 121.112 744.572 121.882C743.93 122.075 743.383 122.171 742.933 122.171C742.098 122.171 741.68 121.561 741.68 120.341V116.778C741.68 115.88 741.809 115.238 742.066 114.852C742.323 114.467 742.998 114.05 744.09 113.6C749.103 111.675 754.663 110.712 760.768 110.712C767.067 110.712 771.694 111.996 774.651 114.563C777.671 117.131 779.182 121.144 779.182 126.601V159.053C779.182 160.465 778.475 161.172 777.061 161.172H771.951C770.537 161.172 769.734 160.53 769.541 159.246L769.059 156.453C766.81 158.379 764.303 159.888 761.54 160.979C758.84 162.07 756.141 162.616 753.441 162.616ZM756.623 154.527C758.487 154.527 760.447 154.142 762.504 153.372C764.56 152.537 766.553 151.381 768.481 149.905V140.66C765.074 139.954 762.054 139.601 759.419 139.601C752.735 139.601 749.392 142.201 749.392 147.401C749.392 149.648 750.035 151.413 751.321 152.697C752.606 153.917 754.373 154.527 756.623 154.527Z" fill="white"/>
<path d="M716.981 162.616C708.883 162.616 702.745 160.433 698.567 156.068C694.39 151.702 692.301 145.347 692.301 137.001C692.301 128.719 694.326 122.267 698.375 117.645C702.488 113.023 708.208 110.712 715.535 110.712C721.833 110.712 726.653 112.445 729.995 115.912C733.402 119.314 735.105 124.161 735.105 130.453C735.105 132.635 734.944 134.914 734.623 137.29C734.494 138.124 734.237 138.702 733.852 139.023C733.53 139.28 733.08 139.408 732.502 139.408H702.809C703.002 144.287 704.352 147.883 706.858 150.194C709.429 152.441 713.35 153.564 718.62 153.564C722.476 153.564 726.525 152.954 730.767 151.734C731.281 151.606 731.666 151.51 731.923 151.446C732.181 151.381 732.406 151.349 732.598 151.349C733.562 151.349 734.044 151.991 734.044 153.275V156.742C734.044 157.705 733.884 158.411 733.562 158.861C733.305 159.246 732.663 159.631 731.634 160.016C727.328 161.749 722.444 162.616 716.981 162.616ZM725.079 131.801V131.03C725.079 127.114 724.211 124.129 722.476 122.075C720.805 120.02 718.33 118.993 715.053 118.993C711.582 118.993 708.754 120.149 706.569 122.46C704.384 124.771 703.131 127.885 702.809 131.801H725.079Z" fill="white"/>
<path d="M664.561 161.172C663.148 161.172 662.441 160.466 662.441 159.053V114.275C662.441 112.862 663.148 112.156 664.561 112.156H669.671C670.571 112.156 671.181 112.284 671.503 112.541C671.888 112.798 672.145 113.28 672.274 113.986L673.431 119.475C676.002 116.65 678.412 114.66 680.661 113.504C682.911 112.349 685.353 111.771 687.988 111.771H688.373C689.209 111.771 689.884 111.867 690.398 112.06C690.976 112.188 691.362 112.445 691.555 112.83C691.812 113.215 691.94 113.922 691.94 114.949V120.149C691.94 121.497 691.362 122.171 690.205 122.171C689.82 122.171 689.273 122.139 688.566 122.075C687.924 122.011 687.217 121.978 686.445 121.978C681.689 121.978 677.48 123.198 673.816 125.638V159.053C673.816 160.466 673.109 161.172 671.695 161.172H664.561Z" fill="white"/>
<path d="M632.171 162.616C624.716 162.616 618.899 160.337 614.722 155.779C610.544 151.157 608.455 144.769 608.455 136.616C608.455 128.462 610.544 122.107 614.722 117.549C618.899 112.991 624.716 110.712 632.171 110.712C639.626 110.712 645.443 112.991 649.62 117.549C653.798 122.107 655.887 128.462 655.887 136.616C655.887 144.769 653.798 151.157 649.62 155.779C645.443 160.337 639.626 162.616 632.171 162.616ZM632.171 153.66C640.269 153.66 644.318 147.979 644.318 136.616C644.318 125.317 640.269 119.667 632.171 119.667C624.073 119.667 620.024 125.317 620.024 136.616C620.024 147.979 624.073 153.66 632.171 153.66Z" fill="white"/>
<path d="M558.614 161.172C557.2 161.172 556.493 160.465 556.493 159.053V96.5558C556.493 95.1434 557.2 94.4372 558.614 94.4372H566.134C567.548 94.4372 568.255 95.1434 568.255 96.5558V123.808L593.127 95.978C593.641 95.4002 594.123 95.015 594.573 94.8224C595.087 94.5656 595.73 94.4372 596.501 94.4372H604.503C605.66 94.4372 606.238 94.8866 606.238 95.7854C606.238 96.3632 605.885 97.0051 605.178 97.7113L579.438 125.927L608.263 157.898C608.97 158.604 609.323 159.246 609.323 159.823C609.323 160.722 608.745 161.172 607.588 161.172H598.333C597.562 161.172 596.919 161.075 596.405 160.883C595.955 160.626 595.473 160.209 594.959 159.631L568.255 129.393V159.053C568.255 160.465 567.548 161.172 566.134 161.172H558.614Z" fill="white"/>
<path d="M494.389 182.165C492.011 182.165 489.986 181.908 488.315 181.394C487.48 181.137 486.933 180.784 486.676 180.335C486.419 179.95 486.291 179.276 486.291 178.313V175.039C486.291 173.755 486.805 173.113 487.833 173.113C488.155 173.113 488.54 173.145 488.99 173.209C489.44 173.273 490.179 173.305 491.207 173.305C493.971 173.305 496.028 172.792 497.377 171.764C498.727 170.801 500.044 168.587 501.33 165.12L502.583 161.749L484.363 115.045C484.106 114.403 483.977 113.889 483.977 113.504C483.977 112.605 484.555 112.156 485.712 112.156H493.521C494.871 112.156 495.706 112.766 496.028 113.986L507.982 150.964L520.129 113.986C520.45 112.766 521.286 112.156 522.635 112.156H529.962C531.119 112.156 531.697 112.605 531.697 113.504C531.697 113.889 531.569 114.403 531.312 115.045L510.296 168.972C508.496 173.658 506.375 177.029 503.933 179.083C501.491 181.137 498.309 182.165 494.389 182.165Z" fill="white"/>
<path d="M456.639 162.616C452.14 162.616 448.477 161.268 445.649 158.572C442.885 155.875 441.503 152.376 441.503 148.075C441.503 143.324 443.206 139.537 446.613 136.712C450.083 133.887 454.711 132.475 460.495 132.475C463.901 132.475 467.629 132.956 471.678 133.919V128.238C471.678 124.964 470.971 122.685 469.557 121.401C468.143 120.117 465.669 119.475 462.134 119.475C460.013 119.475 457.667 119.699 455.096 120.149C452.526 120.534 450.083 121.112 447.77 121.882C447.127 122.075 446.581 122.171 446.131 122.171C445.295 122.171 444.877 121.561 444.877 120.341V116.778C444.877 115.88 445.006 115.238 445.263 114.852C445.52 114.467 446.195 114.05 447.288 113.6C452.301 111.675 457.86 110.712 463.966 110.712C470.264 110.712 474.891 111.996 477.848 114.563C480.869 117.131 482.379 121.144 482.379 126.601V159.053C482.379 160.465 481.672 161.172 480.258 161.172H475.149C473.735 161.172 472.931 160.53 472.738 159.246L472.256 156.453C470.007 158.379 467.5 159.888 464.737 160.979C462.038 162.07 459.338 162.616 456.639 162.616ZM459.82 154.527C461.684 154.527 463.644 154.142 465.701 153.372C467.758 152.537 469.75 151.381 471.678 149.905V140.66C468.272 139.954 465.251 139.601 462.616 139.601C455.932 139.601 452.59 142.201 452.59 147.401C452.59 149.648 453.233 151.413 454.518 152.697C455.803 153.917 457.571 154.527 459.82 154.527Z" fill="white"/>
<path d="M386.121 161.172C384.707 161.172 384 160.465 384 159.053V96.5558C384 95.1434 384.707 94.4372 386.121 94.4372H406.848C416.745 94.4372 424.297 97.294 429.503 103.008C434.773 108.721 437.408 116.939 437.408 127.66C437.408 138.445 434.741 146.727 429.407 152.505C424.137 158.283 416.585 161.172 406.752 161.172H386.121ZM395.761 151.927H405.498C418.802 151.927 425.454 144.223 425.454 128.816V126.697C425.454 111.354 418.802 103.682 405.498 103.682H395.761V151.927Z" fill="white"/>
<path d="M340.485 162.616C335.408 162.616 330.716 161.782 326.41 160.112C325.382 159.727 324.707 159.342 324.386 158.957C324.129 158.507 324 157.801 324 156.838V153.372C324 152.088 324.45 151.446 325.35 151.446C325.8 151.446 326.699 151.638 328.049 152.023C332.612 153.307 336.725 153.949 340.389 153.949C343.602 153.949 345.948 153.468 347.426 152.505C348.905 151.478 349.644 149.937 349.644 147.883C349.644 146.47 349.194 145.347 348.294 144.512C347.394 143.613 345.723 142.715 343.281 141.816L335.279 138.734C328.081 135.974 324.482 131.48 324.482 125.253C324.482 120.759 326.153 117.228 329.495 114.66C332.837 112.028 337.304 110.712 342.895 110.712C346.88 110.712 350.897 111.386 354.946 112.734C355.91 113.055 356.553 113.44 356.874 113.889C357.195 114.275 357.356 114.981 357.356 116.008V119.378C357.356 120.085 357.228 120.598 356.97 120.919C356.778 121.176 356.392 121.304 355.814 121.304C355.492 121.304 354.689 121.144 353.403 120.823C349.354 119.86 346.077 119.378 343.57 119.378C340.614 119.378 338.429 119.828 337.015 120.727C335.665 121.561 334.99 122.909 334.99 124.771C334.99 126.183 335.472 127.339 336.436 128.238C337.465 129.072 339.264 130.003 341.835 131.03L349.258 133.919C353.114 135.396 355.878 137.161 357.549 139.216C359.284 141.27 360.152 143.87 360.152 147.016C360.152 151.831 358.417 155.651 354.946 158.475C351.475 161.236 346.655 162.616 340.485 162.616Z" fill="white"/>
<path d="M292.231 161.172C290.817 161.172 290.11 160.466 290.11 159.053V114.275C290.11 112.862 290.817 112.156 292.231 112.156H297.341C298.241 112.156 298.851 112.284 299.173 112.541C299.558 112.798 299.815 113.28 299.944 113.986L301.101 119.475C303.671 116.65 306.082 114.66 308.331 113.504C310.58 112.349 313.023 111.771 315.658 111.771H316.043C316.879 111.771 317.554 111.867 318.068 112.06C318.646 112.188 319.032 112.445 319.225 112.83C319.482 113.215 319.61 113.922 319.61 114.949V120.149C319.61 121.497 319.032 122.171 317.875 122.171C317.489 122.171 316.943 122.139 316.236 122.075C315.593 122.011 314.887 121.978 314.115 121.978C309.359 121.978 305.15 123.198 301.486 125.638V159.053C301.486 160.466 300.779 161.172 299.365 161.172H292.231Z" fill="white"/>
<path d="M265.7 162.616C257.602 162.616 251.465 160.433 247.287 156.068C243.11 151.702 241.021 145.347 241.021 137.001C241.021 128.719 243.045 122.267 247.094 117.645C251.208 113.023 256.928 110.712 264.254 110.712C270.553 110.712 275.373 112.445 278.715 115.912C282.121 119.314 283.825 124.161 283.825 130.453C283.825 132.635 283.664 134.914 283.342 137.29C283.214 138.124 282.957 138.702 282.571 139.023C282.25 139.28 281.8 139.408 281.222 139.408H251.529C251.722 144.287 253.071 147.883 255.578 150.194C258.149 152.441 262.069 153.564 267.339 153.564C271.195 153.564 275.244 152.954 279.486 151.734C280 151.606 280.386 151.51 280.643 151.446C280.9 151.381 281.125 151.349 281.318 151.349C282.282 151.349 282.764 151.991 282.764 153.275V156.742C282.764 157.705 282.603 158.411 282.282 158.861C282.025 159.246 281.382 159.631 280.354 160.016C276.048 161.749 271.163 162.616 265.7 162.616ZM273.798 131.801V131.03C273.798 127.114 272.931 124.129 271.195 122.075C269.524 120.02 267.05 118.993 263.772 118.993C260.302 118.993 257.474 120.149 255.289 122.46C253.103 124.771 251.85 127.885 251.529 131.801H273.798Z" fill="white"/>
<path d="M208.471 162.231C202.302 162.231 197.353 159.952 193.625 155.394C189.962 150.771 188.13 144.576 188.13 136.808C188.13 131.48 188.998 126.858 190.733 122.941C192.532 118.961 195.007 115.944 198.156 113.889C201.305 111.771 204.937 110.712 209.05 110.712C214.191 110.712 218.883 112.381 223.125 115.719V92.0298C223.125 90.6174 223.832 89.9112 225.246 89.9112H232.38C233.794 89.9112 234.501 90.6174 234.501 92.0298V159.053C234.501 160.465 233.794 161.172 232.38 161.172H226.788C225.374 161.172 224.539 160.53 224.282 159.246L223.607 156.453C219.237 160.305 214.191 162.231 208.471 162.231ZM212.038 153.275C215.83 153.275 219.526 152.055 223.125 149.616V123.134C219.847 120.823 216.216 119.667 212.231 119.667C207.925 119.667 204.744 121.048 202.687 123.808C200.695 126.504 199.699 130.677 199.699 136.327C199.699 147.626 203.812 153.275 212.038 153.275Z" fill="white"/>
<path d="M178.029 161.749C174.237 161.749 171.344 160.69 169.352 158.572C167.424 156.389 166.46 153.243 166.46 149.134V92.0298C166.46 90.6174 167.167 89.9112 168.581 89.9112H175.715C177.129 89.9112 177.836 90.6174 177.836 92.0298V148.268C177.836 149.873 178.125 151.028 178.703 151.734C179.346 152.441 180.374 152.794 181.788 152.794C182.11 152.794 182.463 152.762 182.849 152.697C183.234 152.633 183.556 152.601 183.813 152.601C185.034 152.601 185.645 153.275 185.645 154.623V158.572C185.645 159.92 184.97 160.754 183.62 161.075C181.692 161.525 179.828 161.749 178.029 161.749Z" fill="white"/>
<path d="M147.803 161.172C146.389 161.172 145.682 160.466 145.682 159.053V114.275C145.682 112.862 146.389 112.156 147.803 112.156H154.937C156.351 112.156 157.058 112.862 157.058 114.275V159.053C157.058 160.466 156.351 161.172 154.937 161.172H147.803ZM151.37 104.067C149.249 104.067 147.578 103.489 146.357 102.334C145.135 101.178 144.525 99.5731 144.525 97.5188C144.525 95.4644 145.135 93.8595 146.357 92.7039C147.578 91.5483 149.249 90.9705 151.37 90.9705C153.491 90.9705 155.162 91.5483 156.383 92.7039C157.604 93.8595 158.214 95.4644 158.214 97.5188C158.214 99.5731 157.604 101.178 156.383 102.334C155.162 103.489 153.491 104.067 151.37 104.067Z" fill="white"/>
<path d="M107.603 162.616C103.04 162.616 99.5054 161.364 96.9988 158.86C94.5566 156.293 93.3354 152.633 93.3354 147.883V114.275C93.3354 112.862 94.0424 112.156 95.4564 112.156H102.59C104.004 112.156 104.711 112.862 104.711 114.275V144.512C104.711 147.658 105.354 149.969 106.639 151.446C107.925 152.922 109.981 153.66 112.809 153.66C116.794 153.66 120.811 152.344 124.86 149.712V114.275C124.86 112.862 125.567 112.156 126.981 112.156H134.115C135.529 112.156 136.236 112.862 136.236 114.275V159.053C136.236 160.465 135.529 161.172 134.115 161.172H129.005C128.105 161.172 127.463 161.043 127.077 160.786C126.756 160.53 126.531 160.048 126.402 159.342L125.631 155.779C119.59 160.337 113.58 162.616 107.603 162.616Z" fill="white"/>
<path d="M63.5862 153.275C67.6995 153.275 70.7523 151.895 72.7447 149.134C74.7371 146.31 75.7332 142.04 75.7332 136.327C75.7332 130.677 74.7371 126.504 72.7447 123.808C70.8166 121.048 67.7959 119.667 63.6826 119.667C59.5051 119.667 55.6489 120.887 52.1141 123.327V149.52C55.7132 152.023 59.5372 153.275 63.5862 153.275ZM66.4784 162.231C63.5862 162.231 60.8226 161.717 58.1876 160.69C55.5525 159.599 53.2709 158.09 51.3428 156.164L50.668 159.246C50.4109 160.53 49.5754 161.172 48.1615 161.172H42.8592C41.4453 161.172 40.7383 160.465 40.7383 159.053V92.0298C40.7383 90.6174 41.4453 89.9112 42.8592 89.9112H49.9931C51.4071 89.9112 52.1141 90.6174 52.1141 92.0298V116.489C56.6772 112.638 61.7224 110.712 67.2496 110.712C73.3553 110.712 78.2076 112.991 81.8067 117.549C85.4701 122.107 87.3018 128.238 87.3018 135.942C87.3018 141.27 86.402 145.924 84.6025 149.905C82.8672 153.885 80.4249 156.935 77.2757 159.053C74.1908 161.172 70.5917 162.231 66.4784 162.231Z" fill="white"/>
<rect x="17.7296" y="49.931" width="3.3243" height="156.069" fill="#FF9900"/>
<rect y="185.523" width="3.32062" height="158.459" transform="rotate(-90 0 185.523)" fill="#FF9900"/>
</svg>
