<svg width="1440" height="848" viewBox="0 0 1440 848" fill="none" xmlns="http://www.w3.org/2000/svg">
<g clip-path="url(#clip0_3_1460)">
<line y1="31.75" x2="1440" y2="31.75" stroke="#41424A" stroke-width="0.5"/>
<line y1="63.75" x2="1440" y2="63.75" stroke="#41424A" stroke-width="0.5"/>
<line y1="95.75" x2="1440" y2="95.75" stroke="#41424A" stroke-width="0.5"/>
<line y1="127.75" x2="1440" y2="127.75" stroke="#41424A" stroke-width="0.5"/>
<line y1="159.75" x2="1440" y2="159.75" stroke="#41424A" stroke-width="0.5"/>
<line y1="191.75" x2="1440" y2="191.75" stroke="#41424A" stroke-width="0.5"/>
<line y1="223.75" x2="1440" y2="223.75" stroke="#41424A" stroke-width="0.5"/>
<line y1="255.75" x2="1440" y2="255.75" stroke="#41424A" stroke-width="0.5"/>
<line y1="287.75" x2="1440" y2="287.75" stroke="#41424A" stroke-width="0.5"/>
<line y1="319.75" x2="1440" y2="319.75" stroke="#41424A" stroke-width="0.5"/>
<line y1="351.75" x2="1440" y2="351.75" stroke="#41424A" stroke-width="0.5"/>
<line y1="383.75" x2="1440" y2="383.75" stroke="#41424A" stroke-width="0.5"/>
<line y1="415.75" x2="1440" y2="415.75" stroke="#41424A" stroke-width="0.5"/>
<line y1="447.75" x2="1440" y2="447.75" stroke="#41424A" stroke-width="0.5"/>
<line y1="479.75" x2="1440" y2="479.75" stroke="#41424A" stroke-width="0.5"/>
<line y1="511.75" x2="1440" y2="511.75" stroke="#41424A" stroke-width="0.5"/>
<line y1="543.75" x2="1440" y2="543.75" stroke="#41424A" stroke-width="0.5"/>
<line y1="575.75" x2="1440" y2="575.75" stroke="#41424A" stroke-width="0.5"/>
<line y1="607.75" x2="1440" y2="607.75" stroke="#41424A" stroke-width="0.5"/>
<line y1="639.75" x2="1440" y2="639.75" stroke="#41424A" stroke-width="0.5"/>
<line y1="671.75" x2="1440" y2="671.75" stroke="#41424A" stroke-width="0.5"/>
<line y1="703.75" x2="1440" y2="703.75" stroke="#41424A" stroke-width="0.5"/>
<line y1="735.75" x2="1440" y2="735.75" stroke="#41424A" stroke-width="0.5"/>
<line y1="767.75" x2="1440" y2="767.75" stroke="#41424A" stroke-width="0.5"/>
<line y1="799.75" x2="1440" y2="799.75" stroke="#41424A" stroke-width="0.5"/>
<line y1="831.75" x2="1440" y2="831.75" stroke="#41424A" stroke-width="0.5"/>
<line x1="32.25" y1="1.09278e-08" x2="32.25" y2="848" stroke="#41424A" stroke-width="0.5"/>
<line x1="64.2501" y1="1.09278e-08" x2="64.25" y2="848" stroke="#41424A" stroke-width="0.5"/>
<line x1="96.2501" y1="1.09278e-08" x2="96.2501" y2="848" stroke="#41424A" stroke-width="0.5"/>
<line x1="128.25" y1="1.09278e-08" x2="128.25" y2="848" stroke="#41424A" stroke-width="0.5"/>
<line x1="160.25" y1="1.09278e-08" x2="160.25" y2="848" stroke="#41424A" stroke-width="0.5"/>
<line x1="192.25" y1="1.09278e-08" x2="192.25" y2="848" stroke="#41424A" stroke-width="0.5"/>
<line x1="224.25" y1="1.09278e-08" x2="224.25" y2="848" stroke="#41424A" stroke-width="0.5"/>
<line x1="256.25" y1="1.09278e-08" x2="256.25" y2="848" stroke="#41424A" stroke-width="0.5"/>
<line x1="288.25" y1="1.09278e-08" x2="288.25" y2="848" stroke="#41424A" stroke-width="0.5"/>
<line x1="320.25" y1="1.09278e-08" x2="320.25" y2="848" stroke="#41424A" stroke-width="0.5"/>
<line x1="352.25" y1="1.09278e-08" x2="352.25" y2="848" stroke="#41424A" stroke-width="0.5"/>
<line x1="384.25" y1="1.09278e-08" x2="384.25" y2="848" stroke="#41424A" stroke-width="0.5"/>
<line x1="416.25" y1="1.09278e-08" x2="416.25" y2="848" stroke="#41424A" stroke-width="0.5"/>
<line x1="448.25" y1="1.09278e-08" x2="448.25" y2="848" stroke="#41424A" stroke-width="0.5"/>
<line x1="480.25" y1="1.09278e-08" x2="480.25" y2="848" stroke="#41424A" stroke-width="0.5"/>
<line x1="512.25" y1="1.09278e-08" x2="512.25" y2="848" stroke="#41424A" stroke-width="0.5"/>
<line x1="544.251" y1="1.09278e-08" x2="544.251" y2="848" stroke="#41424A" stroke-width="0.5"/>
<line x1="576.251" y1="1.09278e-08" x2="576.251" y2="848" stroke="#41424A" stroke-width="0.5"/>
<line x1="608.251" y1="1.09278e-08" x2="608.251" y2="848" stroke="#41424A" stroke-width="0.5"/>
<line x1="640.251" y1="1.09278e-08" x2="640.251" y2="848" stroke="#41424A" stroke-width="0.5"/>
<line x1="672.251" y1="1.09278e-08" x2="672.251" y2="848" stroke="#41424A" stroke-width="0.5"/>
<line x1="704.251" y1="1.09278e-08" x2="704.251" y2="848" stroke="#41424A" stroke-width="0.5"/>
<line x1="736.251" y1="1.09278e-08" x2="736.251" y2="848" stroke="#41424A" stroke-width="0.5"/>
<line x1="768.251" y1="1.09278e-08" x2="768.251" y2="848" stroke="#41424A" stroke-width="0.5"/>
<line x1="800.251" y1="1.09278e-08" x2="800.251" y2="848" stroke="#41424A" stroke-width="0.5"/>
<line x1="832.251" y1="1.09278e-08" x2="832.251" y2="848" stroke="#41424A" stroke-width="0.5"/>
<line x1="864.251" y1="1.09278e-08" x2="864.251" y2="848" stroke="#41424A" stroke-width="0.5"/>
<line x1="896.251" y1="1.09278e-08" x2="896.251" y2="848" stroke="#41424A" stroke-width="0.5"/>
<line x1="928.251" y1="1.09278e-08" x2="928.251" y2="848" stroke="#41424A" stroke-width="0.5"/>
<line x1="960.251" y1="1.09278e-08" x2="960.251" y2="848" stroke="#41424A" stroke-width="0.5"/>
<line x1="992.251" y1="1.09278e-08" x2="992.251" y2="848" stroke="#41424A" stroke-width="0.5"/>
<line x1="1024.25" y1="1.09278e-08" x2="1024.25" y2="848" stroke="#41424A" stroke-width="0.5"/>
<line x1="1056.25" y1="1.09278e-08" x2="1056.25" y2="848" stroke="#41424A" stroke-width="0.5"/>
<line x1="1088.25" y1="1.09278e-08" x2="1088.25" y2="848" stroke="#41424A" stroke-width="0.5"/>
<line x1="1120.25" y1="1.09278e-08" x2="1120.25" y2="848" stroke="#41424A" stroke-width="0.5"/>
<line x1="1152.25" y1="1.09278e-08" x2="1152.25" y2="848" stroke="#41424A" stroke-width="0.5"/>
<line x1="1184.25" y1="1.09278e-08" x2="1184.25" y2="848" stroke="#41424A" stroke-width="0.5"/>
<line x1="1216.25" y1="1.09278e-08" x2="1216.25" y2="848" stroke="#41424A" stroke-width="0.5"/>
<line x1="1248.25" y1="1.09278e-08" x2="1248.25" y2="848" stroke="#41424A" stroke-width="0.5"/>
<line x1="1280.25" y1="1.09278e-08" x2="1280.25" y2="848" stroke="#41424A" stroke-width="0.5"/>
<line x1="1312.25" y1="1.09278e-08" x2="1312.25" y2="848" stroke="#41424A" stroke-width="0.5"/>
<line x1="1344.25" y1="1.09278e-08" x2="1344.25" y2="848" stroke="#41424A" stroke-width="0.5"/>
<line x1="1376.25" y1="1.09278e-08" x2="1376.25" y2="848" stroke="#41424A" stroke-width="0.5"/>
<line x1="1408.25" y1="1.09278e-08" x2="1408.25" y2="848" stroke="#41424A" stroke-width="0.5"/>
<rect y="682" width="1440" height="166" fill="url(#paint0_linear_3_1460)"/>
<g filter="url(#filter0_f_3_1460)">
<ellipse cx="227.88" cy="42.0098" rx="660.121" ry="546.217" fill="url(#paint1_radial_3_1460)"/>
</g>
<g filter="url(#filter1_f_3_1460)">
<ellipse cx="1320" cy="754.62" rx="540" ry="657.846" fill="url(#paint2_radial_3_1460)"/>
</g>
<path d="M1332 228.331C1332 228.957 1331.68 229.539 1331.15 229.869L1295.54 252L1293.64 248.925L1328.39 227.325V186.258H1332V228.331Z" fill="white"/>
<path d="M1290.02 187.905L1278.9 218.785L1275.51 217.556L1286.63 186.676L1290.02 187.905Z" fill="white"/>
<path d="M1274.68 195.735L1267.59 202.849L1274.49 209.77L1271.94 212.328L1263.76 204.128C1263.06 203.421 1263.06 202.276 1263.76 201.57L1272.13 193.177L1274.68 195.735Z" fill="white"/>
<path d="M1303.55 201.57C1304.25 202.276 1304.25 203.421 1303.55 204.128L1295.37 212.328L1292.82 209.77L1299.72 202.849L1292.63 195.735L1295.18 193.177L1303.55 201.57Z" fill="white"/>
<path fill-rule="evenodd" clip-rule="evenodd" d="M1282.62 166.251C1283.19 165.903 1283.91 165.903 1284.48 166.251L1315.66 185.165C1316.2 185.492 1316.53 186.079 1316.53 186.712V221.522C1316.53 222.156 1316.2 222.743 1315.66 223.07L1284.48 241.984C1283.91 242.332 1283.19 242.332 1282.62 241.984L1251.44 223.07C1250.9 222.743 1250.57 222.156 1250.57 221.522V186.712C1250.57 186.079 1250.9 185.492 1251.44 185.165L1282.62 166.251ZM1254.17 187.732V220.502L1283.55 238.323L1312.93 220.502V187.732L1283.55 169.911L1254.17 187.732Z" fill="white"/>
<path d="M1274.34 159.093L1239.61 180.228V220.395H1236V179.21C1236 178.577 1236.33 177.991 1236.87 177.663L1272.47 156L1274.34 159.093Z" fill="white"/>
<path fill-rule="evenodd" clip-rule="evenodd" d="M852.709 588.231C853.368 588.278 853.958 588.674 854.25 589.274L888.205 659.269H896.205C897.232 659.269 898.065 660.102 898.065 661.129V681.947C898.065 682.974 897.232 683.807 896.205 683.807H872.566C871.854 683.807 871.205 683.4 870.894 682.76L836.979 612.89H823.38C822.353 612.89 821.521 612.057 821.52 611.03V590.086C821.521 589.059 822.353 588.227 823.38 588.227H852.576L852.709 588.231ZM825.239 609.17H838.144L838.277 609.175C838.936 609.222 839.526 609.617 839.817 610.218L873.73 680.088H894.346V662.988H887.04C886.328 662.988 885.678 662.58 885.367 661.939L851.412 591.945H825.239V609.17Z" fill="white"/>
<path fill-rule="evenodd" clip-rule="evenodd" d="M833.948 625.396C834.664 625.393 835.319 625.8 835.632 626.444L847.948 651.816C848.191 652.316 848.198 652.899 847.966 653.404L834.593 682.546C834.29 683.206 833.63 683.631 832.903 683.631H808.211C807.574 683.631 806.982 683.304 806.641 682.766C806.3 682.228 806.257 681.553 806.529 680.977L832.277 626.462C832.583 625.815 833.233 625.401 833.948 625.396ZM811.145 679.911H831.71L844.219 652.65L833.981 631.562L811.145 679.911Z" fill="white"/>
<path d="M1130.75 704.029C1132.38 703.801 1134.04 703.899 1135.63 704.318C1137.22 704.737 1138.71 705.469 1140.02 706.471L1137.73 709.562C1136.83 708.892 1135.8 708.407 1134.71 708.134C1133.62 707.862 1132.49 707.807 1131.37 707.973C1130.26 708.138 1129.19 708.523 1128.23 709.102C1127.26 709.681 1126.42 710.444 1125.75 711.348C1125.08 712.251 1124.6 713.278 1124.33 714.37C1124.05 715.461 1124 716.596 1124.17 717.708C1124.33 718.82 1124.71 719.89 1125.29 720.854C1125.87 721.818 1126.64 722.658 1127.54 723.327L1125.26 726.4C1123.92 725.442 1122.78 724.228 1121.92 722.827C1121.05 721.426 1120.48 719.867 1120.22 718.241C1119.96 716.615 1120.03 714.954 1120.43 713.356C1120.82 711.757 1121.53 710.251 1122.51 708.929C1123.49 707.606 1124.72 706.492 1126.13 705.651C1127.55 704.81 1129.12 704.258 1130.75 704.029Z" fill="white"/>
<path fill-rule="evenodd" clip-rule="evenodd" d="M1130.98 692.425C1136.86 691.777 1142.78 693.239 1147.68 696.55C1152.58 699.86 1156.15 704.803 1157.75 710.498C1159.34 716.194 1158.86 722.272 1156.4 727.647L1173.68 744.927V744.985C1175.17 746.485 1176.01 748.518 1176.01 750.637C1176.01 752.755 1175.17 754.787 1173.67 756.284C1172.17 757.781 1170.14 758.622 1168.02 758.62C1165.9 758.618 1163.87 757.775 1162.37 756.276L1145.38 739.302C1140.15 742.066 1134.1 742.883 1128.33 741.607C1122.55 740.331 1117.42 737.046 1113.84 732.336C1110.26 727.626 1108.47 721.799 1108.79 715.893C1109.11 709.986 1111.51 704.384 1115.58 700.086C1119.64 695.788 1125.1 693.073 1130.98 692.425ZM1154.48 731.066C1152.91 733.4 1150.96 735.457 1148.72 737.152L1165.08 753.511C1165.86 754.287 1166.91 754.722 1168.01 754.722C1169.11 754.722 1170.17 754.287 1170.95 753.511C1171.73 752.739 1172.17 751.688 1172.18 750.59C1172.19 749.493 1171.76 748.437 1170.99 747.654L1154.48 731.066ZM1137.88 696.527C1133.78 695.712 1129.54 696.131 1125.68 697.729C1121.82 699.328 1118.52 702.034 1116.2 705.507C1113.88 708.98 1112.64 713.064 1112.64 717.241C1112.64 722.842 1114.87 728.215 1118.83 732.175C1122.79 736.136 1128.16 738.362 1133.76 738.362C1137.94 738.362 1142.02 737.123 1145.49 734.802C1148.97 732.482 1151.67 729.183 1153.27 725.324C1154.87 721.465 1155.29 717.218 1154.47 713.121C1153.66 709.024 1151.65 705.262 1148.69 702.308C1145.74 699.354 1141.98 697.342 1137.88 696.527Z" fill="white"/>
<path fill-rule="evenodd" clip-rule="evenodd" d="M1099.2 692.32C1099.71 692.32 1100.2 692.522 1100.56 692.882C1100.92 693.242 1101.12 693.731 1101.12 694.24V755.68C1101.12 756.189 1100.92 756.678 1100.56 757.038C1100.2 757.398 1099.71 757.6 1099.2 757.6H1081.92C1081.41 757.6 1080.92 757.398 1080.56 757.038C1080.2 756.678 1080 756.189 1080 755.68V694.24C1080 693.731 1080.2 693.242 1080.56 692.882C1080.92 692.522 1081.41 692.32 1081.92 692.32H1099.2ZM1083.84 753.76H1097.28V696.16H1083.84V753.76Z" fill="white"/>
<path d="M1104.96 722.56C1105.58 726.128 1106.89 729.544 1108.8 732.621V753.74H1122.24V743.68C1123.48 744.208 1124.77 744.638 1126.08 744.967V755.68C1126.08 756.189 1125.88 756.678 1125.52 757.038C1125.16 757.398 1124.67 757.6 1124.16 757.6H1106.88C1106.37 757.6 1105.88 757.398 1105.52 757.038C1105.16 756.678 1104.96 756.189 1104.96 755.68V722.56Z" fill="white"/>
<path d="M1129.92 745.83C1131.19 746.001 1132.48 746.085 1133.76 746.08V753.76H1147.2V746.502L1151.04 750.343V755.68C1151.04 756.189 1150.84 756.678 1150.48 757.038C1150.12 757.398 1149.63 757.6 1149.12 757.6H1131.84C1131.33 757.6 1130.84 757.398 1130.48 757.038C1130.12 756.678 1129.92 756.189 1129.92 755.68V745.83Z" fill="white"/>
<path d="M1174.08 675.04C1174.59 675.04 1175.08 675.242 1175.44 675.602C1175.8 675.962 1176 676.451 1176 676.96V741.76L1172.16 737.92V678.88H1158.72V703.034C1157.65 701.137 1156.36 699.371 1154.88 697.773V676.96C1154.88 676.451 1155.08 675.962 1155.44 675.602C1155.8 675.242 1156.29 675.04 1156.8 675.04H1174.08Z" fill="white"/>
<path d="M1124.16 680.8C1124.67 680.8 1125.16 681.002 1125.52 681.362C1125.88 681.722 1126.08 682.211 1126.08 682.72V689.517C1124.77 689.87 1123.48 690.325 1122.24 690.88V684.64H1108.8V701.92C1106.89 704.997 1105.58 708.412 1104.96 711.98V682.72C1104.96 682.211 1105.16 681.722 1105.52 681.362C1105.88 681.002 1106.37 680.8 1106.88 680.8H1124.16Z" fill="white"/>
<path d="M1149.12 665.44C1149.38 665.44 1149.63 665.491 1149.87 665.591C1150.11 665.691 1150.32 665.838 1150.5 666.023C1150.68 666.207 1150.82 666.426 1150.91 666.665C1151 666.905 1151.05 667.161 1151.04 667.418V694.298C1149.83 693.375 1148.54 692.552 1147.2 691.84V669.28H1133.76V688.48C1132.48 688.475 1131.19 688.557 1129.92 688.729V667.36C1129.92 666.851 1130.12 666.363 1130.48 666.003C1130.84 665.643 1131.33 665.44 1131.84 665.44H1149.12Z" fill="white"/>
<path d="M1151.74 454.351C1166.02 464.014 1183.62 457.722 1173.45 439.916L1174.65 440.33C1187.22 443.626 1187.44 435.043 1184.68 430.857C1182.9 428.162 1181.78 426.567 1180.9 424.737C1179.37 421.555 1179.43 422.403 1178.95 419.257C1178.01 413.019 1177.98 407.017 1176.32 401.737C1169.21 371.561 1127.87 371.594 1119.6 401.583C1118.4 405.98 1113.85 430.403 1127.34 450.165C1133.46 459.13 1148.96 466.895 1151.74 454.347L1151.74 454.351Z" fill="white"/>
<path d="M1145.67 408.62C1145.67 410.967 1145.18 414.911 1141.85 414.911C1139.29 414.911 1137.76 412.563 1137.76 408.62C1137.76 406.533 1138.19 404.859 1138.99 403.767C1139.69 402.812 1140.69 402.329 1141.85 402.329C1143.02 402.329 1143.93 402.804 1144.57 403.742C1145.3 404.808 1145.68 406.498 1145.68 408.62H1145.67ZM1132.35 408.62C1132.35 410.967 1131.85 414.911 1128.52 414.911C1125.96 414.911 1124.43 412.563 1124.43 408.62C1124.43 406.533 1124.86 404.859 1125.66 403.767C1126.36 402.812 1127.36 402.329 1128.52 402.329C1129.68 402.329 1130.6 402.804 1131.24 403.742C1131.96 404.808 1132.34 406.498 1132.34 408.62H1132.35Z" fill="black"/>
<path d="M1320.62 523.348C1321.77 524.082 1322.47 525.356 1322.47 526.724V558.658H1318.98V526.445L1309.04 520.131L1300.32 525.617V538.58H1296.83V527.813L1289.62 532.342V545.21L1298.59 550.935L1307.86 545.143V535.266H1311.35V547.08L1300.44 553.89V562.904L1306.61 567.211L1304.61 570.073L1298.58 565.858L1291.99 570.131L1290.09 567.202L1296.95 562.748V554.035L1287.7 548.126L1278.06 553.767V560.902L1286.53 555.874L1288.32 558.876L1278.06 564.962V574.029L1287.3 579.481L1297.16 573.523L1298.97 576.512L1289.49 582.235V595.646L1297.59 600.717L1307.72 594.551L1309.54 597.534L1300.91 602.789L1309.05 607.889L1318.98 601.768V577.026L1298.52 589.406L1296.71 586.419L1318.98 572.944V568.479H1322.47V601.485C1322.47 602.872 1321.75 604.161 1320.57 604.889L1311.16 610.695C1309.86 611.494 1308.22 611.489 1306.93 610.682L1287.88 598.756C1286.71 598.024 1286 596.743 1286 595.365V582.77L1276.53 577.184C1275.31 576.465 1274.57 575.155 1274.57 573.739V554.059C1274.57 552.638 1275.32 551.324 1276.55 550.606L1286.13 544.999V532.623C1286.13 531.248 1286.84 529.969 1288 529.237L1306.91 517.346C1308.22 516.524 1309.88 516.528 1311.19 517.356L1320.62 523.348Z" fill="white"/>
<path fill-rule="evenodd" clip-rule="evenodd" d="M1347.7 587.965H1354.08V604.25H1337.79V587.965H1344.21V574.916H1325.66V571.424H1347.7V587.965ZM1341.28 600.758H1350.58V591.456H1341.28V600.758Z" fill="white"/>
<path fill-rule="evenodd" clip-rule="evenodd" d="M1356.47 554.545C1361.42 554.545 1365.43 558.559 1365.43 563.511L1365.43 563.742C1365.31 568.587 1361.34 572.476 1356.47 572.476L1356.24 572.473C1352.02 572.367 1348.52 569.346 1347.69 565.349H1315.14V561.857H1347.66C1348.43 557.696 1352.08 554.545 1356.47 554.545ZM1356.47 558.037C1353.44 558.037 1350.99 560.488 1350.99 563.511C1350.99 566.534 1353.44 568.984 1356.47 568.985C1359.49 568.985 1361.94 566.534 1361.94 563.511C1361.94 560.488 1359.49 558.037 1356.47 558.037Z" fill="white"/>
<path fill-rule="evenodd" clip-rule="evenodd" d="M1356.88 539.251H1347.66V555.543H1325.66V552.051H1344.17V539.251H1334.91L1345.9 521.501L1356.88 539.251ZM1341.18 535.759H1350.61L1345.9 528.136L1341.18 535.759Z" fill="white"/>
</g>
<defs>
<filter id="filter0_f_3_1460" x="-632.241" y="-704.207" width="1720.24" height="1492.43" filterUnits="userSpaceOnUse" color-interpolation-filters="sRGB">
<feFlood flood-opacity="0" result="BackgroundImageFix"/>
<feBlend mode="normal" in="SourceGraphic" in2="BackgroundImageFix" result="shape"/>
<feGaussianBlur stdDeviation="100" result="effect1_foregroundBlur_3_1460"/>
</filter>
<filter id="filter1_f_3_1460" x="580" y="-103.226" width="1480" height="1715.69" filterUnits="userSpaceOnUse" color-interpolation-filters="sRGB">
<feFlood flood-opacity="0" result="BackgroundImageFix"/>
<feBlend mode="normal" in="SourceGraphic" in2="BackgroundImageFix" result="shape"/>
<feGaussianBlur stdDeviation="100" result="effect1_foregroundBlur_3_1460"/>
</filter>
<linearGradient id="paint0_linear_3_1460" x1="720" y1="682" x2="720" y2="848" gradientUnits="userSpaceOnUse">
<stop stop-opacity="0"/>
<stop offset="1"/>
</linearGradient>
<radialGradient id="paint1_radial_3_1460" cx="0" cy="0" r="1" gradientUnits="userSpaceOnUse" gradientTransform="translate(227.88 42.0098) rotate(90) scale(546.217 660.121)">
<stop stop-color="#703FFF" stop-opacity="0.5"/>
<stop offset="1" stop-color="#703FFF" stop-opacity="0"/>
</radialGradient>
<radialGradient id="paint2_radial_3_1460" cx="0" cy="0" r="1" gradientUnits="userSpaceOnUse" gradientTransform="translate(1320 754.62) rotate(90) scale(657.846 540)">
<stop stop-color="#FF5C27" stop-opacity="0.2"/>
<stop offset="1" stop-color="#FF5C27" stop-opacity="0"/>
</radialGradient>
<clipPath id="clip0_3_1460">
<rect width="1440" height="848" fill="white"/>
</clipPath>
</defs>
</svg>
