<svg width="360" height="546" viewBox="0 0 360 546" fill="none" xmlns="http://www.w3.org/2000/svg">
<g clip-path="url(#clip0_32_1264)">
<line y1="31.75" x2="782" y2="31.75" stroke="#41424A" stroke-width="0.5"/>
<line y1="63.75" x2="782" y2="63.75" stroke="#41424A" stroke-width="0.5"/>
<line y1="95.75" x2="782" y2="95.75" stroke="#41424A" stroke-width="0.5"/>
<line y1="127.75" x2="782" y2="127.75" stroke="#41424A" stroke-width="0.5"/>
<line y1="159.75" x2="782" y2="159.75" stroke="#41424A" stroke-width="0.5"/>
<line y1="191.75" x2="782" y2="191.75" stroke="#41424A" stroke-width="0.5"/>
<line y1="223.75" x2="782" y2="223.75" stroke="#41424A" stroke-width="0.5"/>
<line y1="255.75" x2="782" y2="255.75" stroke="#41424A" stroke-width="0.5"/>
<line y1="287.75" x2="782" y2="287.75" stroke="#41424A" stroke-width="0.5"/>
<line y1="319.75" x2="782" y2="319.75" stroke="#41424A" stroke-width="0.5"/>
<line y1="351.75" x2="782" y2="351.75" stroke="#41424A" stroke-width="0.5"/>
<line y1="383.75" x2="782" y2="383.75" stroke="#41424A" stroke-width="0.5"/>
<line y1="415.75" x2="782" y2="415.75" stroke="#41424A" stroke-width="0.5"/>
<line y1="447.75" x2="782" y2="447.75" stroke="#41424A" stroke-width="0.5"/>
<line y1="479.75" x2="782" y2="479.75" stroke="#41424A" stroke-width="0.5"/>
<line y1="511.75" x2="782" y2="511.75" stroke="#41424A" stroke-width="0.5"/>
<line y1="543.75" x2="782" y2="543.75" stroke="#41424A" stroke-width="0.5"/>
<line x1="0.250031" y1="1.09278e-08" x2="0.250007" y2="544" stroke="#41424A" stroke-width="0.5"/>
<line x1="32.2501" y1="1.09278e-08" x2="32.25" y2="544" stroke="#41424A" stroke-width="0.5"/>
<line x1="64.2501" y1="1.09278e-08" x2="64.25" y2="544" stroke="#41424A" stroke-width="0.5"/>
<line x1="96.2501" y1="1.09278e-08" x2="96.2501" y2="544" stroke="#41424A" stroke-width="0.5"/>
<line x1="128.25" y1="1.09278e-08" x2="128.25" y2="544" stroke="#41424A" stroke-width="0.5"/>
<line x1="160.25" y1="1.09278e-08" x2="160.25" y2="544" stroke="#41424A" stroke-width="0.5"/>
<line x1="192.25" y1="1.09278e-08" x2="192.25" y2="544" stroke="#41424A" stroke-width="0.5"/>
<line x1="224.25" y1="1.09278e-08" x2="224.25" y2="544" stroke="#41424A" stroke-width="0.5"/>
<line x1="256.25" y1="1.09278e-08" x2="256.25" y2="544" stroke="#41424A" stroke-width="0.5"/>
<line x1="288.25" y1="1.09278e-08" x2="288.25" y2="544" stroke="#41424A" stroke-width="0.5"/>
<line x1="320.25" y1="1.09278e-08" x2="320.25" y2="544" stroke="#41424A" stroke-width="0.5"/>
<line x1="352.25" y1="1.09278e-08" x2="352.25" y2="544" stroke="#41424A" stroke-width="0.5"/>
<rect y="380" width="1440" height="166" fill="url(#paint0_linear_32_1264)"/>
<g filter="url(#filter0_f_32_1264)">
<ellipse cx="227.88" cy="42.0098" rx="660.121" ry="546.217" fill="url(#paint1_radial_32_1264)"/>
</g>
<path d="M331.077 144.166C331.077 144.479 330.915 144.769 330.649 144.934L312.789 156L311.837 154.463L329.268 143.662V123.129H331.077V144.166Z" fill="white"/>
<path d="M310.018 123.952L304.443 139.392L302.742 138.778L308.317 123.338L310.018 123.952Z" fill="white"/>
<path d="M302.325 127.867L298.768 131.424L302.229 134.885L300.95 136.164L296.85 132.064C296.497 131.711 296.497 131.138 296.85 130.785L301.046 126.589L302.325 127.867Z" fill="white"/>
<path d="M316.804 130.785C317.157 131.138 317.157 131.711 316.804 132.064L312.704 136.164L311.425 134.885L314.886 131.424L311.329 127.867L312.608 126.589L316.804 130.785Z" fill="white"/>
<path fill-rule="evenodd" clip-rule="evenodd" d="M306.306 113.126C306.594 112.952 306.954 112.952 307.242 113.126L322.881 122.582C323.152 122.746 323.318 123.04 323.318 123.356V140.761C323.318 141.078 323.152 141.371 322.881 141.535L307.242 150.992C306.954 151.166 306.594 151.166 306.306 150.992L290.666 141.535C290.396 141.371 290.23 141.078 290.23 140.761V123.356C290.23 123.04 290.396 122.746 290.666 122.582L306.306 113.126ZM292.039 123.866V140.251L306.774 149.161L321.509 140.251V123.866L306.774 114.956L292.039 123.866Z" fill="white"/>
<path d="M302.156 109.546L284.732 120.114V140.197H282.923V119.605C282.923 119.289 283.088 118.996 283.359 118.832L301.218 108L302.156 109.546Z" fill="white"/>
<path d="M239.87 318.175C247.011 323.007 255.808 319.861 250.726 310.958L251.326 311.165C257.612 312.813 257.722 308.522 256.339 306.429C255.449 305.081 254.888 304.284 254.45 303.368C253.687 301.778 253.714 302.201 253.477 300.628C253.007 297.509 252.992 294.508 252.161 291.868C248.604 276.781 227.935 276.797 223.801 291.791C223.198 293.99 220.923 306.202 227.671 316.082C230.73 320.565 238.478 324.447 239.872 318.174L239.87 318.175Z" fill="white"/>
<path d="M236.837 295.31C236.837 296.484 236.589 298.455 234.926 298.455C233.647 298.455 232.882 297.282 232.882 295.31C232.882 294.267 233.094 293.429 233.494 292.884C233.846 292.406 234.345 292.164 234.927 292.164C235.509 292.164 235.966 292.402 236.285 292.871C236.648 293.404 236.838 294.249 236.838 295.31H236.837ZM230.173 295.31C230.173 296.484 229.923 298.455 228.26 298.455C226.981 298.455 226.216 297.282 226.216 295.31C226.216 294.267 226.428 293.429 226.829 292.884C227.181 292.406 227.68 292.164 228.26 292.164C228.84 292.164 229.3 292.402 229.618 292.871C229.981 293.404 230.171 294.249 230.171 295.31H230.173Z" fill="black"/>
<path d="M311.381 389.085C312.535 389.819 313.235 391.092 313.235 392.461V407.329H311.489V391.222L306.522 388.065L302.159 390.809V397.29H300.413V391.907L296.812 394.171V400.605L301.293 403.467L305.929 400.572V395.633H307.675V401.54L302.222 404.945V409.452L305.304 411.605L304.304 413.037L301.288 410.929L297.993 413.066L297.043 411.601L300.477 409.374V405.018L295.851 402.063L291.029 404.884V408.451L295.267 405.937L296.158 407.438L291.029 410.481V415.014L295.649 417.74L300.582 414.762L301.485 416.256L296.747 419.117V425.823L300.797 428.358L305.862 425.276L306.77 426.767L302.453 429.394L306.527 431.944L311.489 428.884V416.513L301.259 422.703L300.355 421.209L311.489 414.472V412.24H313.235V427.626C313.235 429.014 312.516 430.302 311.335 431.031L308.636 432.695C307.341 433.494 305.704 433.489 304.414 432.682L296.879 427.966C295.71 427.234 295.001 425.953 295.001 424.575V419.385L291.251 417.172C290.031 416.453 289.283 415.143 289.283 413.727V406.177C289.283 404.756 290.037 403.441 291.264 402.724L295.067 400.499V395.417C295.067 394.041 295.773 392.763 296.937 392.03L304.386 387.346C305.693 386.524 307.357 386.528 308.661 387.356L311.381 389.085Z" fill="white"/>
<path fill-rule="evenodd" clip-rule="evenodd" d="M325.849 421.982H329.038V430.125H320.896V421.982H324.104V415.458H314.829V413.712H325.849V421.982ZM322.642 428.379H327.292V423.728H322.642V428.379Z" fill="white"/>
<path fill-rule="evenodd" clip-rule="evenodd" d="M330.234 405.273C332.71 405.273 334.717 407.28 334.717 409.755L334.715 409.871C334.654 412.293 332.671 414.238 330.234 414.238L330.118 414.237C328.009 414.183 326.262 412.673 325.846 410.674H309.571V408.928H325.828C326.216 406.848 328.041 405.273 330.234 405.273ZM330.234 407.019C328.722 407.019 327.497 408.244 327.497 409.755C327.497 411.267 328.722 412.492 330.234 412.492C331.745 412.492 332.971 411.267 332.971 409.755C332.971 408.244 331.745 407.019 330.234 407.019Z" fill="white"/>
<path fill-rule="evenodd" clip-rule="evenodd" d="M330.441 397.626H325.832V405.771H314.829V404.025H324.086V397.626H319.456L324.949 388.75L330.441 397.626ZM322.59 395.88H327.307L324.949 392.068L322.59 395.88Z" fill="white"/>
<path d="M236.373 465.015C237.188 464.9 238.019 464.949 238.814 465.159C239.61 465.368 240.357 465.735 241.01 466.235L239.867 467.781C239.415 467.446 238.902 467.203 238.356 467.067C237.81 466.931 237.243 466.903 236.687 466.986C236.131 467.069 235.596 467.261 235.114 467.551C234.632 467.84 234.212 468.222 233.877 468.674C233.542 469.126 233.3 469.639 233.163 470.185C233.027 470.73 233 471.298 233.083 471.854C233.166 472.41 233.357 472.945 233.646 473.427C233.936 473.909 234.318 474.329 234.769 474.664L233.628 476.2C232.958 475.721 232.391 475.114 231.958 474.413C231.526 473.713 231.238 472.933 231.11 472.12C230.982 471.308 231.017 470.477 231.213 469.678C231.409 468.879 231.763 468.126 232.253 467.464C232.743 466.803 233.36 466.246 234.067 465.825C234.774 465.405 235.558 465.129 236.373 465.015Z" fill="white"/>
<path fill-rule="evenodd" clip-rule="evenodd" d="M236.49 459.213C239.43 458.889 242.389 459.62 244.84 461.275C247.291 462.93 249.075 465.401 249.873 468.249C250.671 471.097 250.432 474.136 249.198 476.824L257.838 485.464V485.493C258.587 486.242 259.007 487.259 259.006 488.318C259.005 489.378 258.584 490.394 257.834 491.142C257.084 491.891 256.068 492.311 255.008 492.31C253.949 492.309 252.933 491.888 252.184 491.138L243.688 482.651C241.073 484.033 238.052 484.442 235.165 483.804C232.277 483.166 229.709 481.523 227.92 479.168C226.13 476.813 225.236 473.899 225.395 470.946C225.554 467.993 226.757 465.192 228.789 463.043C230.821 460.894 233.55 459.536 236.49 459.213ZM248.238 478.533C247.454 479.7 246.481 480.728 245.358 481.576L253.538 489.756C253.928 490.143 254.456 490.361 255.007 490.361C255.557 490.361 256.085 490.144 256.476 489.756C256.866 489.369 257.086 488.844 257.09 488.295C257.094 487.746 256.879 487.218 256.495 486.827L248.238 478.533ZM239.94 461.264C237.892 460.856 235.769 461.066 233.839 461.865C231.91 462.664 230.26 464.017 229.099 465.754C227.939 467.49 227.32 469.532 227.32 471.621C227.32 474.421 228.433 477.107 230.413 479.088C232.393 481.068 235.079 482.181 237.88 482.181C239.969 482.181 242.01 481.562 243.747 480.401C245.483 479.241 246.837 477.592 247.636 475.662C248.435 473.733 248.645 471.609 248.237 469.56C247.83 467.512 246.824 465.631 245.347 464.154C243.87 462.677 241.989 461.671 239.94 461.264Z" fill="white"/>
<path fill-rule="evenodd" clip-rule="evenodd" d="M220.6 459.16C220.855 459.16 221.099 459.261 221.279 459.441C221.459 459.621 221.56 459.866 221.56 460.12V490.84C221.56 491.094 221.459 491.339 221.279 491.519C221.099 491.699 220.855 491.8 220.6 491.8H211.96C211.706 491.8 211.461 491.699 211.281 491.519C211.101 491.339 211 491.094 211 490.84V460.12C211 459.866 211.101 459.621 211.281 459.441C211.461 459.261 211.706 459.16 211.96 459.16H220.6ZM212.92 489.88H219.64V461.08H212.92V489.88Z" fill="white"/>
<path d="M223.48 474.28C223.792 476.064 224.444 477.772 225.4 479.311V489.87H232.12V484.84C232.742 485.104 233.385 485.319 234.04 485.483V490.84C234.04 491.094 233.939 491.339 233.759 491.519C233.579 491.699 233.334 491.8 233.08 491.8H224.44C224.185 491.8 223.941 491.699 223.761 491.519C223.581 491.339 223.48 491.094 223.48 490.84V474.28Z" fill="white"/>
<path d="M235.96 485.915C236.596 486 237.238 486.042 237.88 486.04V489.88H244.6V486.251L246.52 488.171V490.84C246.52 491.094 246.419 491.339 246.239 491.519C246.059 491.699 245.815 491.8 245.56 491.8H236.92C236.666 491.8 236.421 491.699 236.241 491.519C236.061 491.339 235.96 491.094 235.96 490.84V485.915Z" fill="white"/>
<path d="M258.04 450.52C258.295 450.52 258.539 450.621 258.719 450.801C258.899 450.981 259 451.226 259 451.48V483.88L257.08 481.96V452.44H250.36V464.517C249.824 463.568 249.18 462.686 248.44 461.886V451.48C248.44 451.226 248.541 450.981 248.721 450.801C248.901 450.621 249.146 450.52 249.4 450.52H258.04Z" fill="white"/>
<path d="M233.08 453.4C233.334 453.4 233.579 453.501 233.759 453.681C233.939 453.861 234.04 454.106 234.04 454.36V457.758C233.383 457.935 232.741 458.163 232.12 458.44V455.32H225.4V463.96C224.444 465.498 223.792 467.206 223.48 468.99V454.36C223.48 454.106 223.581 453.861 223.761 453.681C223.941 453.501 224.185 453.4 224.44 453.4H233.08Z" fill="white"/>
<path d="M245.56 445.72C245.689 445.72 245.816 445.745 245.934 445.795C246.053 445.846 246.16 445.919 246.249 446.011C246.339 446.104 246.409 446.213 246.455 446.333C246.502 446.452 246.524 446.58 246.52 446.709V460.149C245.915 459.687 245.272 459.276 244.6 458.92V447.64H237.88V457.24C237.238 457.237 236.596 457.279 235.96 457.365V446.68C235.96 446.426 236.061 446.182 236.241 446.001C236.421 445.821 236.666 445.72 236.92 445.72H245.56Z" fill="white"/>
<path fill-rule="evenodd" clip-rule="evenodd" d="M100.354 403.116C100.684 403.139 100.979 403.337 101.125 403.637L118.103 438.634H122.103C122.616 438.634 123.033 439.051 123.033 439.564V449.974C123.033 450.487 122.616 450.903 122.103 450.903H110.283C109.927 450.903 109.602 450.7 109.447 450.38L92.4897 415.445H85.6899C85.1766 415.445 84.7604 415.028 84.7602 414.515V404.043C84.7603 403.53 85.1765 403.113 85.6899 403.113H100.288L100.354 403.116ZM86.6196 413.585H93.0722L93.1386 413.587C93.4682 413.611 93.7629 413.809 93.9087 414.109L110.865 449.044H121.173V440.494H117.52C117.164 440.494 116.839 440.29 116.684 439.97L99.706 404.973H86.6196V413.585Z" fill="white"/>
<path fill-rule="evenodd" clip-rule="evenodd" d="M90.9741 421.698C91.332 421.696 91.6596 421.9 91.8159 422.222L97.9741 434.908C98.0955 435.158 98.0988 435.45 97.9829 435.702L91.2964 450.273C91.1448 450.603 90.815 450.815 90.4516 450.815H78.1054C77.7869 450.815 77.4908 450.652 77.3203 450.383C77.1499 450.114 77.1286 449.776 77.2646 449.488L90.1386 422.231C90.2915 421.908 90.6164 421.7 90.9741 421.698ZM79.5727 448.956H89.855L96.1094 435.325L90.9907 424.781L79.5727 448.956Z" fill="white"/>
</g>
<defs>
<filter id="filter0_f_32_1264" x="-632.241" y="-704.207" width="1720.24" height="1492.43" filterUnits="userSpaceOnUse" color-interpolation-filters="sRGB">
<feFlood flood-opacity="0" result="BackgroundImageFix"/>
<feBlend mode="normal" in="SourceGraphic" in2="BackgroundImageFix" result="shape"/>
<feGaussianBlur stdDeviation="100" result="effect1_foregroundBlur_32_1264"/>
</filter>
<linearGradient id="paint0_linear_32_1264" x1="720" y1="380" x2="720" y2="546" gradientUnits="userSpaceOnUse">
<stop stop-opacity="0"/>
<stop offset="1"/>
</linearGradient>
<radialGradient id="paint1_radial_32_1264" cx="0" cy="0" r="1" gradientUnits="userSpaceOnUse" gradientTransform="translate(227.88 42.0098) rotate(90) scale(546.217 660.121)">
<stop stop-color="#703FFF" stop-opacity="0.5"/>
<stop offset="1" stop-color="#703FFF" stop-opacity="0"/>
</radialGradient>
<clipPath id="clip0_32_1264">
<rect width="360" height="546" fill="white"/>
</clipPath>
</defs>
</svg>
