<svg width="801" height="416" viewBox="0 0 801 416" fill="none" xmlns="http://www.w3.org/2000/svg">
<g clip-path="url(#clip0_93_964)">
<path d="M32 0L32 448" stroke="#41424A"/>
<path d="M64 0L64 448" stroke="#41424A"/>
<path d="M96.0001 0L96 448" stroke="#41424A"/>
<path d="M128 0L128 448" stroke="#41424A"/>
<path d="M160 0L160 448" stroke="#41424A"/>
<path d="M192 0L192 448" stroke="#41424A"/>
<path d="M224 0L224 448" stroke="#41424A"/>
<path d="M256 0L256 448" stroke="#41424A"/>
<path d="M288 0L288 448" stroke="#41424A"/>
<path d="M320 0L320 448" stroke="#41424A"/>
<path d="M352 0L352 448" stroke="#41424A"/>
<path d="M384 0L384 448" stroke="#41424A"/>
<path d="M416 0L416 448" stroke="#41424A"/>
<path d="M448 0L448 448" stroke="#41424A"/>
<path d="M480 0L480 448" stroke="#41424A"/>
<path d="M512 0L512 448" stroke="#41424A"/>
<path d="M544 0L544 448" stroke="#41424A"/>
<path d="M576 0L576 448" stroke="#41424A"/>
<path d="M608 0L608 448" stroke="#41424A"/>
<path d="M640 0L640 448" stroke="#41424A"/>
<path d="M672 0L672 448" stroke="#41424A"/>
<path d="M704 0L704 448" stroke="#41424A"/>
<path d="M736 0L736 448" stroke="#41424A"/>
<path d="M768 0L768 448" stroke="#41424A"/>
<path d="M800 0L800 448" stroke="#41424A"/>
<line y1="31.5" x2="1057" y2="31.5" stroke="#41424A"/>
<line y1="63.5" x2="1057" y2="63.5" stroke="#41424A"/>
<line y1="95.5" x2="1057" y2="95.5" stroke="#41424A"/>
<line y1="127.5" x2="1057" y2="127.5" stroke="#41424A"/>
<line y1="159.5" x2="1057" y2="159.5" stroke="#41424A"/>
<line y1="191.5" x2="1057" y2="191.5" stroke="#41424A"/>
<line y1="223.5" x2="1057" y2="223.5" stroke="#41424A"/>
<line y1="255.5" x2="1057" y2="255.5" stroke="#41424A"/>
<line y1="287.5" x2="1057" y2="287.5" stroke="#41424A"/>
<line y1="319.5" x2="1057" y2="319.5" stroke="#41424A"/>
<line y1="351.5" x2="1057" y2="351.5" stroke="#41424A"/>
<line y1="383.5" x2="1057" y2="383.5" stroke="#41424A"/>
<line y1="415.5" x2="1057" y2="415.5" stroke="#41424A"/>
<path d="M31.5 31H320.5V95H704.5V384H31.5V31Z" fill="#FF9900" fill-opacity="0.6"/>
<path d="M65.44 84.288V71.04H67.624V68.856H74.392V71.04H76.6V77.76H74.392V79.944H67.864V84.288H65.44ZM67.864 77.52H74.152V71.28H67.864V77.52ZM78.7759 84.288V75.384H80.9599V73.2H87.7279V75.384H89.9359V77.76H87.4879V75.6H81.1999V84.288H78.7759ZM94.2959 84.288V82.128H92.1119V75.384H94.2959V73.2H101.064V75.384H103.272V82.128H101.064V84.288H94.2959ZM94.5359 81.888H100.824V75.6H94.5359V81.888ZM108.358 88.632V86.472H106.174V84.072H108.598V86.232H114.91V82.128H108.358V79.944H106.174V75.384H108.358V73.2H115.15V75.384H117.334V86.472H115.15V88.632H108.358ZM108.598 79.704H114.91V75.6H108.598V79.704ZM120.237 84.288V75.384H122.421V73.2H129.189V75.384H131.397V77.76H128.949V75.6H122.661V84.288H120.237ZM135.757 84.288V82.128H133.573V75.384H135.757V73.2H142.525V75.384H144.733V81.888H146.917V84.288H144.493V82.128H142.525V84.288H135.757ZM135.997 81.888H142.285V75.6H135.997V81.888ZM149.088 84.288V73.2H155.88V75.384H157.8V73.2H162.432V75.384H164.592V84.288H162.192V75.6H158.04V84.288H155.64V75.6H151.512V84.288H149.088ZM172.292 84.288V73.2H179.084V75.384H181.004V73.2H185.636V75.384H187.796V84.288H185.396V75.6H181.244V84.288H178.844V75.6H174.716V84.288H172.292ZM190.69 84.288V73.2H193.114V84.288H190.69ZM190.69 71.28V68.856H193.114V71.28H190.69ZM196.01 84.288V81.888H204.722V79.944H198.194V77.76H196.01V75.384H198.194V73.2H207.17V75.6H198.434V77.52H204.962V79.704H207.17V82.128H204.962V84.288H196.01ZM209.604 84.288V81.888H218.316V79.944H211.788V77.76H209.604V75.384H211.788V73.2H220.764V75.6H212.028V77.52H218.556V79.704H220.764V82.128H218.556V84.288H209.604ZM223.667 84.288V73.2H226.091V84.288H223.667ZM223.667 71.28V68.856H226.091V71.28H223.667ZM230.702 84.288V82.128H228.518V75.384H230.702V73.2H237.47V75.384H239.678V82.128H237.47V84.288H230.702ZM230.942 81.888H237.23V75.6H230.942V81.888ZM242.581 84.288V73.2H251.533V75.384H253.741V84.288H251.293V75.6H245.005V84.288H242.581Z" fill="white"/>
<path d="M64.806 168.458L80.306 125.926H88.118L103.246 168.458H95.372L91.528 157.67H75.718L71.874 168.458H64.806ZM83.468 134.978L77.516 151.966H89.606L83.654 134.978H83.468ZM113.176 168.458L102.574 125.926H110.324L117.578 157.422H117.764L126.444 125.926H132.644L141.2 157.422H141.386L148.702 125.926H155.584L145.168 168.458H137.604L129.296 137.582H129.11L120.678 168.458H113.176ZM171.101 169.202C165.521 169.202 161.305 168.024 158.391 166.474V160.46C161.801 161.948 165.831 163.064 170.481 163.064C176.185 163.064 178.603 160.708 178.603 156.864C178.603 153.33 177.053 151.966 172.403 150.54L168.373 149.424C162.359 147.75 158.701 144.526 158.701 137.334C158.701 130.142 163.351 125.244 172.961 125.244C178.541 125.244 181.579 126.298 183.935 127.538V133.49C181.269 132.374 177.797 131.382 173.085 131.382C168.621 131.382 166.141 133.242 166.141 136.652C166.141 140 167.381 141.426 171.597 142.604L175.565 143.844C182.261 145.766 186.291 148.556 186.291 156.12C186.291 164.18 181.393 169.202 171.101 169.202ZM224.788 169.14C212.946 169.14 205.63 162.196 205.63 147.874V146.324C205.63 131.01 214.558 125.244 225.594 125.244C230.306 125.244 233.654 126.05 236.258 127.476V133.428C232.972 132.126 230.058 131.444 226.152 131.444C218.774 131.444 213.876 135.412 213.876 145.518V147.688C213.876 157.422 217.286 162.94 226.214 162.94C231.05 162.94 234.15 161.7 236.692 160.646V166.536C233.778 168.086 229.872 169.14 224.788 169.14ZM255.412 169.016C245.678 169.016 240.284 163.126 240.284 153.144V152.152C240.284 141.922 246.484 135.97 255.474 135.97C265.022 135.97 270.54 141.798 270.54 151.966V152.834C270.54 163.126 264.34 169.016 255.412 169.016ZM255.536 163.622C260.31 163.622 263.1 160.336 263.1 153.454V151.904C263.1 143.596 259.69 141.364 255.35 141.364C250.452 141.364 247.6 144.774 247.6 151.656V153.144C247.6 161.39 251.072 163.622 255.536 163.622ZM275.899 168.458V136.528H282.781V139.38H283.029C285.757 137.458 289.043 135.97 292.763 135.97C296.421 135.97 298.901 137.086 300.327 139.566H300.699C303.985 137.334 307.581 135.97 311.177 135.97C316.819 135.97 319.981 138.388 319.981 144.712V168.458H312.913V146.386C312.913 143.224 311.673 141.922 308.015 141.922C305.907 141.922 303.799 142.542 301.381 143.72C301.443 144.216 301.505 144.526 301.505 145.146V168.458H294.499V146.386C294.499 143.224 293.197 141.922 289.601 141.922C287.307 141.922 284.951 142.666 283.029 143.658V168.458H275.899ZM326.972 168.458V136.528H333.854V139.38H334.102C336.83 137.458 340.116 135.97 343.836 135.97C347.494 135.97 349.974 137.086 351.4 139.566H351.772C355.058 137.334 358.654 135.97 362.25 135.97C367.892 135.97 371.054 138.388 371.054 144.712V168.458H363.986V146.386C363.986 143.224 362.746 141.922 359.088 141.922C356.98 141.922 354.872 142.542 352.454 143.72C352.516 144.216 352.578 144.526 352.578 145.146V168.458H345.572V146.386C345.572 143.224 344.27 141.922 340.674 141.922C338.38 141.922 336.024 142.666 334.102 143.658V168.458H326.972ZM387.53 169.016C381.33 169.016 377.858 165.978 377.858 159.716V136.528H384.988V158.352C384.988 161.824 386.228 163.25 390.196 163.25C392.986 163.25 395.28 162.258 397.326 161.328V136.528H404.456V168.458H398.256L397.636 165.668H397.326C394.66 167.59 391.56 169.016 387.53 169.016ZM411.558 168.458V136.528H418.44V139.38H418.688C421.416 137.396 425.322 135.97 429.166 135.97C435.304 135.97 438.466 138.45 438.466 144.774V168.458H431.274V146.448C431.274 143.224 430.22 141.922 425.88 141.922C423.4 141.922 420.61 142.728 418.688 143.658V168.458H411.558ZM445.62 168.458V136.528H452.812V168.458H445.62ZM445.62 131.258V124.748H452.874V131.258H445.62ZM471.092 168.83C465.574 168.83 462.04 166.598 462.04 160.584V142.108H457.576V136.528H462.04V129.026H469.046V136.528H476.672V142.108H469.046V159.592C469.046 162.258 470.038 163.25 473.386 163.25C474.626 163.25 475.928 163.064 477.044 162.754V167.528C475.804 168.148 474.068 168.83 471.092 168.83ZM485.969 177.634C484.357 177.634 482.249 177.2 481.319 176.58V171.806C482.125 171.992 483.303 172.116 484.419 172.116C487.333 172.116 489.255 171.372 490.371 168.334L491.239 166.102L479.211 136.528H486.775L494.835 157.236H495.083L502.523 136.528H509.405L497.067 169.326C494.959 175.402 491.859 177.634 485.969 177.634ZM69.022 232.458V189.926H83.902C93.698 189.926 97.914 193.894 97.914 200.652C97.914 205.116 96.054 208.34 90.97 209.952V210.138C96.302 211.13 99.774 214.106 99.774 220.306C99.774 227.374 95 232.458 84.956 232.458H69.022ZM76.586 226.754H83.902C89.048 226.754 91.776 224.522 91.776 219.872C91.776 214.974 88.862 213.114 83.468 213.114H76.586V226.754ZM76.586 208.03H82.538C87.002 208.03 90.35 206.542 90.35 201.706C90.35 197.118 87.746 195.568 82.848 195.568H76.586V208.03ZM114.97 233.016C108.77 233.016 105.298 229.978 105.298 223.716V200.528H112.428V222.352C112.428 225.824 113.668 227.25 117.636 227.25C120.426 227.25 122.72 226.258 124.766 225.328V200.528H131.896V232.458H125.696L125.076 229.668H124.766C122.1 231.59 119 233.016 114.97 233.016ZM139.122 232.458V200.528H146.314V232.458H139.122ZM139.122 195.258V188.748H146.376V195.258H139.122ZM153.806 232.458V187.136H160.998V232.458H153.806ZM179.711 233.016C173.387 233.016 166.753 228.986 166.753 217.454V216.648C166.753 204.93 172.705 199.97 181.013 199.97C184.733 199.97 187.151 200.962 188.639 201.768V187.136H195.707V232.458H189.631L189.011 229.916H188.763C186.779 231.776 183.803 233.016 179.711 233.016ZM182.191 227.498C185.167 227.498 187.399 226.258 188.639 225.328V207.162C187.461 206.232 184.981 205.488 182.129 205.488C177.169 205.488 174.069 208.092 174.069 215.966V217.144C174.069 225.08 177.355 227.498 182.191 227.498ZM216.921 233.016C206.319 233.016 201.111 227.002 201.111 216.896V216.028C201.111 205.302 207.621 200.032 215.743 200.032C225.167 200.032 229.259 205.302 229.259 215.47V218.446H208.427C208.861 225.08 212.271 227.436 218.347 227.436C222.439 227.436 225.415 226.506 228.205 225.08V230.04C226.035 231.466 222.315 233.016 216.921 233.016ZM215.619 205.302C212.333 205.302 208.923 207.038 208.427 213.548H222.005C222.005 207.534 219.773 205.302 215.619 205.302ZM234.606 232.458V200.528H241.488V204.248H241.736C243.472 201.954 246.758 200.28 250.106 200.28C250.974 200.28 251.78 200.342 252.09 200.466V206.79C251.284 206.666 250.23 206.604 249.486 206.604C246.634 206.604 243.782 207.41 241.736 208.712V232.458H234.606ZM265.479 232.954C261.325 232.954 257.605 232.21 254.939 230.784V225.576C257.605 226.63 259.961 227.56 264.425 227.56C268.889 227.56 270.749 226.072 270.749 223.716C270.749 221.422 269.509 220.306 266.037 219.562L263.061 218.88C258.163 217.888 254.939 215.408 254.939 209.704C254.939 203.814 258.721 200.032 266.781 200.032C271.121 200.032 273.849 200.838 275.957 201.768V207.162C274.097 206.356 270.997 205.426 267.401 205.426C263.681 205.426 261.697 206.666 261.697 209.146C261.697 211.378 262.937 212.184 265.975 212.928L269.013 213.61C275.275 215.036 277.693 217.516 277.693 223.034C277.693 229.668 273.291 232.954 265.479 232.954ZM298.96 232.458V189.926H312.91C325.93 189.926 333.246 196.188 333.246 210.076V211.316C333.246 224.956 326.612 232.458 312.972 232.458H298.96ZM306.586 226.444H313.034C321.342 226.444 325.186 222.352 325.186 212.06V210.014C325.186 199.288 320.536 195.94 312.476 195.94H306.586V226.444ZM347.052 233.016C341.286 233.016 337.256 230.102 337.256 223.964C337.256 218.074 341.162 215.346 347.486 214.416L354.988 213.548V211.13C354.988 206.79 353.066 205.798 347.672 205.798C344.572 205.798 341.844 206.232 339.922 206.666V201.768C342.898 200.59 346.308 200.032 350.462 200.032C357.84 200.032 362.118 202.884 362.118 209.518V232.458H356.228L355.67 229.854H355.298C353.748 231.652 351.206 233.016 347.052 233.016ZM349.222 227.994C351.516 227.994 353.81 227.188 354.988 226.072V218.198L349.098 218.818C345.936 219.066 344.262 220.368 344.262 223.592C344.262 226.63 346.308 227.994 349.222 227.994ZM372.836 241.634C371.224 241.634 369.116 241.2 368.186 240.58V235.806C368.992 235.992 370.17 236.116 371.286 236.116C374.2 236.116 376.122 235.372 377.238 232.334L378.106 230.102L366.078 200.528H373.642L381.702 221.236H381.95L389.39 200.528H396.272L383.934 233.326C381.826 239.402 378.726 241.634 372.836 241.634ZM440.36 232.458L424.674 210.882C429.882 203.876 435.152 196.87 440.422 189.926H448.296L433.044 210.076C438.438 217.516 443.832 224.956 449.164 232.458H440.36ZM416.304 232.458V189.926H423.93V232.458H416.304ZM466.762 233.016C457.028 233.016 451.634 227.126 451.634 217.144V216.152C451.634 205.922 457.834 199.97 466.824 199.97C476.372 199.97 481.89 205.798 481.89 215.966V216.834C481.89 227.126 475.69 233.016 466.762 233.016ZM466.886 227.622C471.66 227.622 474.45 224.336 474.45 217.454V215.904C474.45 207.596 471.04 205.364 466.7 205.364C461.802 205.364 458.95 208.774 458.95 215.656V217.144C458.95 225.39 462.422 227.622 466.886 227.622ZM487.249 232.458V200.528H494.131V204.248H494.379C496.115 201.954 499.401 200.28 502.749 200.28C503.617 200.28 504.423 200.342 504.733 200.466V206.79C503.927 206.666 502.873 206.604 502.129 206.604C499.277 206.604 496.425 207.41 494.379 208.712V232.458H487.249ZM523.392 233.016C512.79 233.016 507.582 227.002 507.582 216.896V216.028C507.582 205.302 514.092 200.032 522.214 200.032C531.638 200.032 535.73 205.302 535.73 215.47V218.446H514.898C515.332 225.08 518.742 227.436 524.818 227.436C528.91 227.436 531.886 226.506 534.676 225.08V230.04C532.506 231.466 528.786 233.016 523.392 233.016ZM522.09 205.302C518.804 205.302 515.394 207.038 514.898 213.548H528.476C528.476 207.534 526.244 205.302 522.09 205.302ZM549.075 233.016C543.309 233.016 539.279 230.102 539.279 223.964C539.279 218.074 543.185 215.346 549.509 214.416L557.011 213.548V211.13C557.011 206.79 555.089 205.798 549.695 205.798C546.595 205.798 543.867 206.232 541.945 206.666V201.768C544.921 200.59 548.331 200.032 552.485 200.032C559.863 200.032 564.141 202.884 564.141 209.518V232.458H558.251L557.693 229.854H557.321C555.771 231.652 553.229 233.016 549.075 233.016ZM551.245 227.994C553.539 227.994 555.833 227.188 557.011 226.072V218.198L551.121 218.818C547.959 219.066 546.285 220.368 546.285 223.592C546.285 226.63 548.331 227.994 551.245 227.994ZM612.075 219.934H568.605V214.858H612.075V219.934ZM606.729 209.458H574.437V192.718H580.755V204.436H606.729V209.458ZM607.053 237.97H574.167V223.768H580.431V232.948H607.053V237.97Z" fill="white"/>
<path d="M75.544 293.864C75.472 301.448 71.776 305.984 66.04 308.768L64.864 307.376C68.32 305.888 70.96 303.536 72.448 300.416L65.344 301.04L64.96 299.384L73.024 298.904C73.36 297.8 73.576 296.624 73.624 295.376H65.872V293.864H75.544ZM80.224 301.52H75.472V299.96H80.224V291.704H82.048V312.68H80.224V301.52ZM101.038 301.184H86.8536V292.976H101.038V301.184ZM91.2216 312.704H89.3976V305.432H84.4776V303.896H103.414V305.432H98.4216V312.704H96.5976V305.432H91.2216V312.704ZM99.1896 299.672V294.488H88.7016V299.672H99.1896ZM121.035 291.704V312.68H119.235V291.704H121.035ZM117.099 304.976L117.267 306.56C114.843 307.112 109.371 307.52 106.155 307.52H105.219V293.888H107.067V305.912C109.755 305.912 114.603 305.528 117.099 304.976ZM136.641 305.36L136.833 306.872C134.553 307.304 129.945 307.616 126.609 307.616H124.785V293.696H134.553V295.208H126.633V299.6H134.169V301.088H126.633V306.032C129.921 306.128 134.553 305.792 136.641 305.36ZM140.817 312.68H138.993V291.704H140.817V312.68ZM154.536 309.992V293.888H159.456C163.176 293.888 164.664 295.376 164.664 297.944C164.664 299.624 163.872 300.896 161.976 301.448V301.568C163.944 301.88 165.384 303.008 165.384 305.456C165.384 308.12 163.56 309.992 159.936 309.992H154.536ZM156.432 308.408H159.816C162.144 308.408 163.368 307.4 163.368 305.336C163.368 303.248 162.024 302.432 159.624 302.432H156.432V308.408ZM156.432 300.92H159.192C161.208 300.92 162.72 300.248 162.72 298.16C162.72 296.144 161.568 295.496 159.312 295.496H156.432V300.92ZM170.662 310.208C168.334 310.208 167.014 309.032 167.014 306.728V298.088H168.862V306.464C168.862 308 169.414 308.624 171.166 308.624C172.438 308.624 173.494 308.168 174.478 307.688V298.088H176.302V309.992H174.718L174.55 308.912H174.454C173.374 309.656 172.102 310.208 170.662 310.208ZM178.685 309.992V298.112H180.509V309.992H178.685ZM178.661 295.712V293.792H180.533V295.712H178.661ZM182.898 309.992V292.808H184.746V309.992H182.898ZM191.336 310.208C188.96 310.208 186.392 308.768 186.392 304.376V304.064C186.392 299.744 188.624 297.872 191.696 297.872C193.16 297.872 194.168 298.28 194.816 298.664V292.808H196.664V309.992H195.128L194.912 309.008H194.816C194.096 309.704 192.944 310.208 191.336 310.208ZM191.888 308.696C193.28 308.696 194.216 308.168 194.816 307.688V300.2C194.264 299.768 193.16 299.432 191.936 299.432C189.68 299.432 188.312 300.608 188.312 303.824V304.304C188.312 307.64 189.752 308.696 191.888 308.696ZM203.862 310.208C200.118 310.208 198.222 307.928 198.222 304.208V303.872C198.222 299.72 200.67 297.872 203.406 297.872C206.67 297.872 208.206 299.768 208.206 303.464V304.496H200.094C200.19 307.472 201.606 308.624 204.15 308.624C205.734 308.624 206.79 308.24 207.87 307.736V309.104C207.15 309.608 205.782 310.208 203.862 310.208ZM203.358 299.36C201.87 299.36 200.286 300.224 200.094 303.032H206.286C206.286 300.44 205.302 299.36 203.358 299.36ZM209.766 309.992V298.088H211.518V299.432H211.638C212.31 298.664 213.606 297.968 214.95 297.968C215.214 297.968 215.55 297.992 215.67 298.016V299.672C215.358 299.624 214.998 299.6 214.806 299.6C213.606 299.6 212.454 300.032 211.614 300.632V309.992H209.766ZM222.287 293.072C225.527 293.072 227.999 295.064 227.999 298.112C227.999 300.872 225.983 302.72 223.223 303.08V306.488C225.575 306.344 227.711 306.2 229.055 306.008L229.199 307.472C227.543 307.712 224.663 307.928 222.119 308.096C219.815 308.216 217.751 308.288 215.999 308.288L215.663 306.68C217.223 306.68 219.263 306.68 221.399 306.584V303.08C218.615 302.768 216.599 300.92 216.599 298.136C216.599 295.088 219.047 293.072 222.287 293.072ZM222.287 294.632C220.007 294.632 218.375 296 218.375 298.136C218.375 300.248 220.031 301.592 222.287 301.592C224.639 301.592 226.199 300.248 226.199 298.16C226.199 296 224.663 294.632 222.287 294.632ZM235.559 302.024H232.199V312.68H230.351V291.704H232.199V300.488H235.559V302.024ZM241.845 309.992V293.888H243.765V300.872H251.829V293.888H253.725V309.992H251.829V302.48H243.765V309.992H241.845ZM261.261 310.208C257.517 310.208 255.621 307.928 255.621 304.208V303.872C255.621 299.72 258.069 297.872 260.805 297.872C264.069 297.872 265.605 299.768 265.605 303.464V304.496H257.493C257.589 307.472 259.005 308.624 261.549 308.624C263.133 308.624 264.189 308.24 265.269 307.736V309.104C264.549 309.608 263.181 310.208 261.261 310.208ZM260.757 299.36C259.269 299.36 257.685 300.224 257.493 303.032H263.685C263.685 300.44 262.701 299.36 260.757 299.36ZM267.165 309.992V298.088H268.917V299.432H269.037C269.709 298.664 271.005 297.968 272.349 297.968C272.613 297.968 272.949 297.992 273.069 298.016V299.672C272.757 299.624 272.397 299.6 272.205 299.6C271.005 299.6 269.853 300.032 269.013 300.632V309.992H267.165ZM278.893 310.208C275.533 310.208 273.517 308.048 273.517 304.256V303.896C273.517 300.128 275.701 297.872 278.917 297.872C282.277 297.872 284.317 300.056 284.317 303.824V304.16C284.317 307.952 282.109 310.208 278.893 310.208ZM278.941 308.696C281.101 308.696 282.445 307.184 282.445 304.376V303.776C282.445 300.464 280.837 299.384 278.893 299.384C276.733 299.384 275.389 300.92 275.389 303.704V304.304C275.389 307.616 276.949 308.696 278.941 308.696ZM301.17 291.704V300.44H304.602V302H301.17V312.68H299.346V291.704H301.17ZM295.722 293.96C295.602 300.776 291.666 305.696 286.266 308.504L285.138 307.064C290.37 304.64 293.37 300.224 293.754 295.496H285.858V293.96H295.722ZM329.032 298.544H325.84V304.16H324.016V291.704H325.84V297.008H329.032V298.544ZM311.944 305.264H325.84V312.824H324.016V306.776H311.944V305.264ZM320.008 293.144C319.6 298.616 315.952 302.192 310.624 303.848L309.64 302.312C313.84 301.376 317.44 298.256 318.016 294.704H310.48V293.144H320.008ZM341.71 306.392L340.606 307.76C338.638 306.512 336.07 303.872 335.326 301.376C334.606 303.92 332.566 306.512 330.046 308.264L328.846 306.896C331.942 305.072 334.366 301.376 334.366 297.608V295.448H329.518V293.912H341.11V295.448H336.262V297.56C336.262 301.472 338.83 304.76 341.71 306.392ZM348.814 301.76H345.406V312.68H343.582V291.704H345.406V300.224H348.814V301.76ZM364.251 291.704H366.075V312.68H364.251V291.704ZM360.939 298.328C360.939 301.304 358.515 303.2 355.491 303.2C352.395 303.2 350.019 301.136 350.019 298.328C350.019 295.376 352.443 293.336 355.491 293.336C358.587 293.336 360.939 295.256 360.939 298.328ZM359.163 298.328C359.163 296.216 357.531 294.896 355.491 294.896C353.475 294.896 351.795 296.36 351.795 298.328C351.795 300.272 353.451 301.664 355.491 301.664C357.483 301.664 359.163 300.296 359.163 298.328ZM363.027 307.352C361.227 307.568 358.227 307.76 355.563 307.88C353.091 308 350.787 308.072 349.203 308.096L348.867 306.488C350.667 306.512 353.139 306.464 355.683 306.32C358.611 306.224 361.323 306.056 362.859 305.864L363.027 307.352ZM374.114 295.088V293.552H385.394V295.088H380.69C380.69 296.048 380.69 296.48 380.714 296.792C380.882 299.48 383.474 301.88 385.874 302.672L384.842 304.136C382.85 303.32 380.618 301.328 379.754 299.432C379.178 301.376 376.754 303.656 374.498 304.64L373.442 303.224C376.082 302.192 378.722 299.528 378.818 296.768C378.842 296.48 378.842 296.024 378.842 295.088H374.114ZM390.65 307.064H388.826V299.072H384.65V297.536H388.826V291.704H390.65V307.064ZM391.106 311.984H376.97V305.528H378.794V310.448H391.106V311.984ZM409.639 300.248H395.455V292.856H409.639V300.248ZM407.815 298.736V294.368H397.279V298.736H407.815ZM403.495 308.24H401.671V304.112H393.079V302.6H412.015V304.112H403.495V308.24ZM409.879 312.008H395.431V306.08H397.255V310.496H409.879V312.008ZM434.285 300.392H420.125V292.376H421.949V294.968H432.437V292.376H434.285V300.392ZM428.093 308.288H426.269V304.256H417.749V302.744H436.685V304.256H428.093V308.288ZM434.573 312.008H420.149V306.32H421.973V310.496H434.573V312.008ZM432.437 298.856V296.48H421.949V298.856H432.437ZM437.603 300.68C437.603 296.264 439.571 293.288 442.979 293.288C446.387 293.288 448.331 296.264 448.331 300.704C448.331 305.144 446.387 308.12 442.979 308.12C439.571 308.12 437.603 305.144 437.603 300.68ZM446.555 300.704C446.555 297.248 445.163 294.872 442.979 294.872C440.795 294.872 439.379 297.248 439.379 300.704C439.379 304.136 440.795 306.536 442.979 306.536C445.163 306.536 446.555 304.136 446.555 300.704ZM456.851 296.984V298.52H453.179V303.392H456.851V304.928H453.179V312.68H451.355V291.704H453.179V296.984H456.851ZM461.825 293.528C464.729 293.528 466.289 296.192 466.433 300.008H468.689V292.112H470.465V311.672H468.689V301.52H466.433C466.241 305.312 464.705 307.88 461.825 307.88C458.777 307.88 457.217 304.928 457.217 300.704C457.217 296.504 458.777 293.528 461.825 293.528ZM464.633 300.704C464.633 297.32 463.529 295.136 461.825 295.136C460.145 295.136 459.065 297.32 459.065 300.704C459.065 304.112 460.145 306.272 461.825 306.272C463.529 306.272 464.633 304.112 464.633 300.704ZM474.569 312.68H472.769V291.704H474.569V312.68ZM499.239 312.68H497.439V301.496H494.631V311.6H492.855V292.208H494.631V299.96H497.439V291.704H499.239V312.68ZM484.023 305.696H484.647C486.759 305.696 489.903 305.552 491.679 305.168L491.847 306.656C489.855 307.04 486.327 307.28 483.591 307.28H482.199V294.272H490.335V295.808H484.023V305.696ZM520.437 300.344H517.245V307.184H515.421V291.704H517.245V298.808H520.437V300.344ZM518.061 312.008H504.093V306.632H505.917V310.472H518.061V312.008ZM510.069 294.056H504.021V292.448H510.069V294.056ZM513.309 297.152H501.021V295.64H513.309V297.152ZM512.109 301.952C512.109 304.16 509.997 305.624 507.165 305.624C504.381 305.624 502.245 304.16 502.245 301.952C502.245 299.696 504.357 298.28 507.165 298.28C509.997 298.28 512.109 299.696 512.109 301.952ZM510.381 301.952C510.381 300.56 508.869 299.72 507.165 299.72C505.485 299.72 503.973 300.56 503.973 301.952C503.973 303.32 505.485 304.16 507.165 304.16C508.869 304.16 510.381 303.32 510.381 301.952ZM82.672 352.68H80.872V331.704H82.672V352.68ZM78.52 351.624H76.744V340.8H73.024V339.264H76.744V332.208H78.52V351.624ZM75.472 346.056L74.344 347.4C72.736 346.248 70.528 343.752 69.856 341.376C69.4 343.776 67.672 346.512 65.584 348.024L64.456 346.656C66.832 345.144 68.944 341.568 68.944 337.464V333.648H70.744V337.416C70.744 341.496 73.192 344.544 75.472 346.056ZM95.9256 340.8V339.264H99.7896V336.408H95.9256V334.872H99.7896V331.704H101.614V346.872H99.7896V340.8H95.9256ZM96.7176 342.504L95.6376 343.944C93.4776 342.912 91.4136 340.992 90.5256 338.856C89.8776 341.064 87.6456 343.44 85.3656 344.616L84.2376 343.2C87.0456 341.952 89.5656 339.048 89.5656 335.688V332.928H91.4136V335.616C91.4136 339.12 94.2216 341.592 96.7176 342.504ZM102.07 352.032H88.1256V345.624H89.9496V350.52H102.07V352.032ZM123.699 342.024H120.291V352.68H118.467V331.704H120.291V340.464H123.699V342.024ZM117.267 347.376C115.251 347.64 112.155 347.856 110.115 347.976C108.003 348.072 105.675 348.144 103.923 348.144L103.659 346.536C104.811 346.536 106.683 346.56 108.243 346.512V339.888H110.091V346.464C112.611 346.344 115.251 346.152 117.123 345.864L117.267 347.376ZM115.683 333.912C115.731 337.128 115.395 341.496 114.939 343.536L113.187 343.296C113.643 341.256 113.931 337.8 113.835 335.448H104.715V333.912H115.683ZM145.85 347.016H144.026V331.704H145.85V347.016ZM146.378 351.984H132.17V345.504H133.994V350.472H146.378V351.984ZM134.81 333.096C138.002 333.096 140.474 335.208 140.474 338.328C140.474 341.448 138.026 343.536 134.834 343.536C131.642 343.536 129.17 341.472 129.17 338.352C129.17 335.232 131.642 333.096 134.81 333.096ZM134.81 334.68C132.602 334.68 130.922 336.192 130.922 338.328C130.922 340.44 132.626 341.928 134.834 341.928C137.138 341.928 138.746 340.44 138.746 338.352C138.746 336.192 137.138 334.68 134.81 334.68ZM167.791 341.712H164.407V352.68H162.583V331.704H164.407V340.176H167.791V341.712ZM160.591 346.176L159.439 347.568C157.279 346.08 154.927 343.584 154.087 341.04C153.343 343.656 151.303 346.32 148.831 348.048L147.655 346.632C150.703 344.76 153.175 340.992 153.175 337.272V333.552H155.047V337.224C155.047 341.04 157.687 344.472 160.591 346.176ZM185.101 352.68H183.277V331.704H185.101V352.68ZM168.541 340.68C168.541 336.264 170.509 333.288 173.941 333.288C177.421 333.288 179.365 336.264 179.365 340.704C179.365 345.144 177.421 348.12 173.941 348.12C170.509 348.12 168.541 345.144 168.541 340.68ZM177.637 340.704C177.637 337.248 176.173 334.872 173.941 334.872C171.733 334.872 170.269 337.248 170.269 340.704C170.269 344.136 171.733 346.536 173.941 346.536C176.173 346.536 177.637 344.136 177.637 340.704ZM203.466 339.84H191.562V343.104H204.09V344.64H189.714V333.72H203.874V335.256H191.562V338.304H203.466V339.84ZM206.346 350.016H187.41V348.48H206.346V350.016ZM225.912 342.888H206.976V341.472H225.912V342.888ZM224.328 352.296H209.16V347.64H221.856V345.888H209.184V344.544H223.68V348.936H210.984V350.856H224.328V352.296ZM223.968 339.816H209.376V335.472H221.736V333.84H209.352V332.4H223.56V336.792H211.2V338.448H223.968V339.816ZM242.35 346.392L241.198 347.736C239.71 346.68 237.502 344.232 236.902 342.024C236.47 344.352 234.574 346.848 232.534 348.288L231.31 347.016C233.782 345.432 235.99 342.12 235.99 338.04V335.688H231.814V334.176H241.822V335.688H237.79V337.992C237.79 342.12 239.758 344.712 242.35 346.392ZM245.182 351.624H243.382V340.92H240.022V339.408H243.382V332.208H245.182V351.624ZM249.334 352.68H247.534V331.704H249.334V352.68ZM268.156 348.72C268.156 351.072 265.54 352.488 260.644 352.488C255.748 352.488 253.084 351.072 253.084 348.72C253.084 346.368 255.748 344.928 260.644 344.928C265.54 344.928 268.156 346.368 268.156 348.72ZM266.356 348.72C266.356 347.28 264.148 346.416 260.644 346.416C257.092 346.416 254.908 347.28 254.908 348.72C254.908 350.184 257.092 351.024 260.644 351.024C264.148 351.024 266.356 350.184 266.356 348.72ZM270.148 343.224H251.212V341.712H259.012V337.272H260.836V341.712H270.148V343.224ZM267.916 332.856V334.728C267.916 336.48 267.652 339.024 267.316 340.32L265.516 340.08C265.852 338.928 265.996 337.032 266.02 336.072L266.044 334.368H253.3V332.856H267.916ZM290.314 342.096H286.906V352.68H285.082V331.704H286.906V340.56H290.314V342.096ZM279.97 334.704H273.802V333.144H279.97V334.704ZM283.066 338.256H270.682V336.744H283.066V338.256ZM281.818 343.944C281.818 346.368 279.85 348.264 276.922 348.264C273.994 348.264 272.026 346.392 272.026 343.944C272.026 341.496 273.994 339.6 276.922 339.6C279.85 339.6 281.818 341.472 281.818 343.944ZM279.994 343.944C279.994 342.288 278.698 341.136 276.922 341.136C275.17 341.136 273.85 342.288 273.85 343.944C273.85 345.576 275.17 346.752 276.922 346.752C278.722 346.752 279.994 345.576 279.994 343.944ZM309.279 344.064H290.343V342.528H309.279V344.064ZM307.263 352.224H292.815V346.032H294.639V350.712H307.263V352.224ZM307.167 339.912H292.887V332.592H294.711V338.4H307.167V339.912ZM332.654 349.056C332.654 351.288 330.038 352.656 325.598 352.656C321.182 352.656 318.566 351.288 318.566 349.056C318.566 346.872 321.182 345.504 325.598 345.504C330.038 345.504 332.654 346.872 332.654 349.056ZM332.702 345.456H330.878V339.264H328.334V344.688H326.558V332.088H328.334V337.752H330.878V331.704H332.702V345.456ZM324.95 341.352C324.95 343.416 322.982 344.592 320.414 344.592C317.846 344.592 315.878 343.416 315.878 341.352C315.878 339.264 317.846 338.064 320.414 338.064C322.982 338.064 324.95 339.264 324.95 341.352ZM325.598 347.04C322.382 347.04 320.414 347.832 320.414 349.08C320.414 350.328 322.382 351.12 325.598 351.12C328.814 351.12 330.806 350.328 330.806 349.08C330.806 347.832 328.814 347.04 325.598 347.04ZM325.526 337.128H314.822V335.64H325.526V337.128ZM323.15 341.352C323.15 340.248 321.926 339.528 320.414 339.528C318.902 339.528 317.678 340.248 317.678 341.352C317.678 342.408 318.902 343.152 320.414 343.152C321.95 343.152 323.15 342.408 323.15 341.352ZM323.006 334.152H317.558V332.568H323.006V334.152ZM354.091 341.712H350.707V352.68H348.883V331.704H350.707V340.176H354.091V341.712ZM346.891 346.176L345.739 347.568C343.579 346.08 341.227 343.584 340.387 341.04C339.643 343.656 337.603 346.32 335.131 348.048L333.955 346.632C337.003 344.76 339.475 340.992 339.475 337.272V333.552H341.347V337.224C341.347 341.04 343.987 344.472 346.891 346.176ZM371.281 342.936H369.457V331.704H371.281V342.936ZM371.305 352.392H357.769V344.088H359.593V346.752H369.481V344.088H371.305V352.392ZM369.481 350.904V348.24H359.593V350.904H369.481ZM360.097 332.736C363.049 332.736 365.473 334.656 365.473 337.632C365.473 340.632 363.049 342.504 360.097 342.504C357.169 342.504 354.697 340.632 354.697 337.656C354.697 334.704 357.145 332.736 360.097 332.736ZM360.097 334.32C358.033 334.32 356.521 335.664 356.521 337.632C356.521 339.648 358.033 340.992 360.097 340.992C362.233 340.992 363.649 339.648 363.649 337.656C363.649 335.688 362.257 334.32 360.097 334.32ZM390.702 331.704V352.68H388.902V331.704H390.702ZM386.766 344.976L386.934 346.56C384.51 347.112 379.038 347.52 375.822 347.52H374.886V333.888H376.734V345.912C379.422 345.912 384.27 345.528 386.766 344.976ZM409.452 331.704V340.032H412.86V341.568H409.452V352.68H407.628V331.704H409.452ZM395.94 345.984H397.14C399.852 345.984 404.004 345.744 406.02 345.312L406.212 346.824C403.956 347.256 399.804 347.544 396.156 347.544H394.092V333.888H404.052V335.424H395.94V345.984ZM412.938 350.592V348.456H415.026V350.592H412.938Z" fill="white"/>
</g>
<defs>
<clipPath id="clip0_93_964">
<rect width="801" height="416" fill="white"/>
</clipPath>
</defs>
</svg>
