<svg width="1376" height="257" viewBox="0 0 1376 257" fill="none" xmlns="http://www.w3.org/2000/svg">
<g clip-path="url(#clip0_32_3868)">
<path d="M32 0L32 417" stroke="#41424A"/>
<path d="M64 0L64 417" stroke="#41424A"/>
<path d="M96 0L96 417" stroke="#41424A"/>
<path d="M128 0L128 417" stroke="#41424A"/>
<path d="M160 0L160 417" stroke="#41424A"/>
<path d="M192 0L192 417" stroke="#41424A"/>
<path d="M224 0L224 417" stroke="#41424A"/>
<path d="M256 0L256 417" stroke="#41424A"/>
<path d="M288 0L288 417" stroke="#41424A"/>
<path d="M320 0L320 417" stroke="#41424A"/>
<path d="M352 0L352 417" stroke="#41424A"/>
<path d="M384 0L384 417" stroke="#41424A"/>
<path d="M416 0L416 417" stroke="#41424A"/>
<path d="M448 0L448 417" stroke="#41424A"/>
<path d="M480 0L480 417" stroke="#41424A"/>
<path d="M512 0L512 417" stroke="#41424A"/>
<path d="M544 0L544 417" stroke="#41424A"/>
<path d="M576 0L576 417" stroke="#41424A"/>
<path d="M608 0L608 417" stroke="#41424A"/>
<path d="M640 0L640 417" stroke="#41424A"/>
<path d="M672 0L672 417" stroke="#41424A"/>
<path d="M704 0L704 417" stroke="#41424A"/>
<path d="M736 0L736 417" stroke="#41424A"/>
<path d="M768 0L768 417" stroke="#41424A"/>
<path d="M800 0L800 417" stroke="#41424A"/>
<path d="M832 0L832 417" stroke="#41424A"/>
<path d="M864 0L864 417" stroke="#41424A"/>
<path d="M896 0L896 417" stroke="#41424A"/>
<path d="M928 0L928 417" stroke="#41424A"/>
<path d="M960 0L960 417" stroke="#41424A"/>
<path d="M992 0L992 417" stroke="#41424A"/>
<path d="M1024 0L1024 417" stroke="#41424A"/>
<path d="M1056 0L1056 417" stroke="#41424A"/>
<path d="M1088 0L1088 417" stroke="#41424A"/>
<path d="M1120 0L1120 417" stroke="#41424A"/>
<path d="M1152 0L1152 417" stroke="#41424A"/>
<path d="M1184 0L1184 417" stroke="#41424A"/>
<path d="M1216 0L1216 417" stroke="#41424A"/>
<path d="M1248 0L1248 417" stroke="#41424A"/>
<path d="M1280 0L1280 417" stroke="#41424A"/>
<path d="M1312 0L1312 417" stroke="#41424A"/>
<path d="M1344 0L1344 417" stroke="#41424A"/>
<line y1="0.5" x2="1376" y2="0.5" stroke="#41424A"/>
<line y1="32.5" x2="1376" y2="32.5" stroke="#41424A"/>
<line y1="64.5" x2="1376" y2="64.5" stroke="#41424A"/>
<line y1="96.5" x2="1376" y2="96.5" stroke="#41424A"/>
<line y1="128.5" x2="1376" y2="128.5" stroke="#41424A"/>
<line y1="160.5" x2="1376" y2="160.5" stroke="#41424A"/>
<line y1="192.5" x2="1376" y2="192.5" stroke="#41424A"/>
<line y1="224.5" x2="1376" y2="224.5" stroke="#41424A"/>
<line y1="256.5" x2="1376" y2="256.5" stroke="#41424A"/>
<path d="M432.5 32.5H737.5V96.5L943.5 96.366V223.933H432.5V32.5Z" fill="#703FFF" fill-opacity="0.6"/>
<path d="M465.44 88.288V75.04H467.624V72.856H474.392V75.04H476.6V81.76H474.392V83.944H467.864V88.288H465.44ZM467.864 81.52H474.152V75.28H467.864V81.52ZM478.776 88.288V79.384H480.96V77.2H487.728V79.384H489.936V81.76H487.488V79.6H481.2V88.288H478.776ZM494.296 88.288V86.128H492.112V79.384H494.296V77.2H501.064V79.384H503.272V86.128H501.064V88.288H494.296ZM494.536 85.888H500.824V79.6H494.536V85.888ZM508.358 92.632V90.472H506.174V88.072H508.598V90.232H514.91V86.128H508.358V83.944H506.174V79.384H508.358V77.2H515.15V79.384H517.334V90.472H515.15V92.632H508.358ZM508.598 83.704H514.91V79.6H508.598V83.704ZM520.237 88.288V79.384H522.421V77.2H529.189V79.384H531.397V81.76H528.949V79.6H522.661V88.288H520.237ZM535.757 88.288V86.128H533.573V79.384H535.757V77.2H542.525V79.384H544.733V85.888H546.917V88.288H544.493V86.128H542.525V88.288H535.757ZM535.997 85.888H542.285V79.6H535.997V85.888ZM549.088 88.288V77.2H555.88V79.384H557.8V77.2H562.432V79.384H564.592V88.288H562.192V79.6H558.04V88.288H555.64V79.6H551.512V88.288H549.088ZM572.292 88.288V85.888H581.004V83.944H574.476V81.76H572.292V79.384H574.476V77.2H583.452V79.6H574.716V81.52H581.244V83.704H583.452V86.128H581.244V88.288H572.292ZM588.069 88.288V86.128H585.885V79.384H588.069V77.2H594.837V79.384H597.045V81.76H594.597V79.6H588.309V85.888H594.597V83.704H597.045V86.128H594.837V88.288H588.069ZM599.479 88.288V72.856H601.903V79.384H603.823V77.2H608.431V79.384H610.639V88.288H608.191V79.6H604.063V81.76H601.903V88.288H599.479ZM615.257 88.288V86.128H613.073V79.384H615.257V77.2H622.025V79.384H624.233V81.76H621.785V79.6H615.497V81.52H619.865V83.944H615.497V85.888H621.785V83.68H624.233V86.104H622.025V88.288H615.257ZM629.319 88.288V86.128H627.135V79.384H629.319V77.2H635.871V72.856H638.295V86.128H636.087V88.288H629.319ZM629.559 85.888H635.847V79.6H629.559V85.888ZM642.913 88.288V86.128H640.729V77.2H643.153V85.888H649.441V77.2H651.889V86.128H649.681V88.288H642.913ZM654.792 88.288V72.856H657.216V88.288H654.792ZM661.827 88.288V86.128H659.643V79.384H661.827V77.2H668.595V79.384H670.803V81.76H668.355V79.6H662.067V81.52H666.435V83.944H662.067V85.888H668.355V83.68H670.803V86.104H668.595V88.288H661.827Z" fill="white"/>
<path d="M469.022 183.458V140.926H483.902C493.698 140.926 497.914 144.894 497.914 151.652C497.914 156.116 496.054 159.34 490.97 160.952V161.138C496.302 162.13 499.774 165.106 499.774 171.306C499.774 178.374 495 183.458 484.956 183.458H469.022ZM476.586 177.754H483.902C489.048 177.754 491.776 175.522 491.776 170.872C491.776 165.974 488.862 164.114 483.468 164.114H476.586V177.754ZM476.586 159.03H482.538C487.002 159.03 490.35 157.542 490.35 152.706C490.35 148.118 487.746 146.568 482.848 146.568H476.586V159.03ZM514.97 184.016C508.77 184.016 505.298 180.978 505.298 174.716V151.528H512.428V173.352C512.428 176.824 513.668 178.25 517.636 178.25C520.426 178.25 522.72 177.258 524.766 176.328V151.528H531.896V183.458H525.696L525.076 180.668H524.766C522.1 182.59 519 184.016 514.97 184.016ZM539.122 183.458V151.528H546.314V183.458H539.122ZM539.122 146.258V139.748H546.376V146.258H539.122ZM553.806 183.458V138.136H560.998V183.458H553.806ZM579.711 184.016C573.387 184.016 566.753 179.986 566.753 168.454V167.648C566.753 155.93 572.705 150.97 581.013 150.97C584.733 150.97 587.151 151.962 588.639 152.768V138.136H595.707V183.458H589.631L589.011 180.916H588.763C586.779 182.776 583.803 184.016 579.711 184.016ZM582.191 178.498C585.167 178.498 587.399 177.258 588.639 176.328V158.162C587.461 157.232 584.981 156.488 582.129 156.488C577.169 156.488 574.069 159.092 574.069 166.966V168.144C574.069 176.08 577.355 178.498 582.191 178.498ZM616.921 184.016C606.319 184.016 601.111 178.002 601.111 167.896V167.028C601.111 156.302 607.621 151.032 615.743 151.032C625.167 151.032 629.259 156.302 629.259 166.47V169.446H608.427C608.861 176.08 612.271 178.436 618.347 178.436C622.439 178.436 625.415 177.506 628.205 176.08V181.04C626.035 182.466 622.315 184.016 616.921 184.016ZM615.619 156.302C612.333 156.302 608.923 158.038 608.427 164.548H622.005C622.005 158.534 619.773 156.302 615.619 156.302ZM634.606 183.458V151.528H641.488V155.248H641.736C643.472 152.954 646.758 151.28 650.106 151.28C650.974 151.28 651.78 151.342 652.09 151.466V157.79C651.284 157.666 650.23 157.604 649.486 157.604C646.634 157.604 643.782 158.41 641.736 159.712V183.458H634.606ZM665.479 183.954C661.325 183.954 657.605 183.21 654.939 181.784V176.576C657.605 177.63 659.961 178.56 664.425 178.56C668.889 178.56 670.749 177.072 670.749 174.716C670.749 172.422 669.509 171.306 666.037 170.562L663.061 169.88C658.163 168.888 654.939 166.408 654.939 160.704C654.939 154.814 658.721 151.032 666.781 151.032C671.121 151.032 673.849 151.838 675.957 152.768V158.162C674.097 157.356 670.997 156.426 667.401 156.426C663.681 156.426 661.697 157.666 661.697 160.146C661.697 162.378 662.937 163.184 665.975 163.928L669.013 164.61C675.275 166.036 677.693 168.516 677.693 174.034C677.693 180.668 673.291 183.954 665.479 183.954ZM698.96 183.458V140.926H712.91C725.93 140.926 733.246 147.188 733.246 161.076V162.316C733.246 175.956 726.612 183.458 712.972 183.458H698.96ZM706.586 177.444H713.034C721.342 177.444 725.186 173.352 725.186 163.06V161.014C725.186 150.288 720.536 146.94 712.476 146.94H706.586V177.444ZM747.052 184.016C741.286 184.016 737.256 181.102 737.256 174.964C737.256 169.074 741.162 166.346 747.486 165.416L754.988 164.548V162.13C754.988 157.79 753.066 156.798 747.672 156.798C744.572 156.798 741.844 157.232 739.922 157.666V152.768C742.898 151.59 746.308 151.032 750.462 151.032C757.84 151.032 762.118 153.884 762.118 160.518V183.458H756.228L755.67 180.854H755.298C753.748 182.652 751.206 184.016 747.052 184.016ZM749.222 178.994C751.516 178.994 753.81 178.188 754.988 177.072V169.198L749.098 169.818C745.936 170.066 744.262 171.368 744.262 174.592C744.262 177.63 746.308 178.994 749.222 178.994ZM772.836 192.634C771.224 192.634 769.116 192.2 768.186 191.58V186.806C768.992 186.992 770.17 187.116 771.286 187.116C774.2 187.116 776.122 186.372 777.238 183.334L778.106 181.102L766.078 151.528H773.642L781.702 172.236H781.95L789.39 151.528H796.272L783.934 184.326C781.826 190.402 778.726 192.634 772.836 192.634ZM855.746 190.032H821.418V176.648H847.682V173.176H821.138V168.024H854.178V181.352H827.97V184.768H855.746V190.032ZM854.178 165.504H847.682V140.528H854.178V165.504ZM814.418 153.8C814.418 147.136 820.018 142.208 827.69 142.208C835.306 142.208 840.85 147.024 840.85 153.8C840.85 160.464 835.306 164.944 827.69 164.944C820.298 164.944 814.418 160.632 814.418 153.8ZM820.914 153.744C820.914 157.104 823.826 159.512 827.69 159.512C831.778 159.512 834.354 156.824 834.354 153.744C834.354 150.328 831.89 147.584 827.69 147.584C823.994 147.584 820.914 150.384 820.914 153.744ZM901.903 180.456C901.903 186.504 895.463 190.312 884.431 190.312C873.399 190.312 866.959 186.504 866.959 180.456C866.959 174.24 873.399 170.432 884.431 170.432C895.463 170.432 901.903 174.24 901.903 180.456ZM862.031 149.432V144.056H888.295V149.432H878.831C879.335 156.376 884.375 161.024 889.807 162.816C888.687 164.552 887.455 166.232 886.279 167.968C882.471 166.512 877.599 162.76 875.471 158.224C873.959 163.04 868.695 167.744 863.879 169.424C862.535 167.688 861.303 166.008 859.959 164.328C866.959 161.808 871.551 156.544 871.943 149.432H862.031ZM887.511 157.72V152.456H895.015V140.528H901.567V170.208H895.015V157.72H887.511ZM884.431 175.696C877.655 175.696 873.679 177.432 873.679 180.456C873.679 183.368 877.655 185.104 884.431 185.104C891.319 185.104 895.239 183.368 895.239 180.456C895.239 177.432 891.319 175.696 884.431 175.696Z" fill="white"/>
</g>
<defs>
<clipPath id="clip0_32_3868">
<rect width="1376" height="257" fill="white"/>
</clipPath>
</defs>
</svg>
