<svg width="360" height="224" viewBox="0 0 360 224" fill="none" xmlns="http://www.w3.org/2000/svg">
<g clip-path="url(#clip0_112_1142)">
<path d="M20 0L20 224" stroke="#41424A"/>
<path d="M52 0L52 224" stroke="#41424A"/>
<path d="M84 0L84 224" stroke="#41424A"/>
<path d="M116 0L116 224" stroke="#41424A"/>
<path d="M148 0L148 224" stroke="#41424A"/>
<path d="M180 0L180 224" stroke="#41424A"/>
<path d="M212 0L212 224" stroke="#41424A"/>
<path d="M244 0L244 224" stroke="#41424A"/>
<path d="M276 0L276 224" stroke="#41424A"/>
<path d="M308 0L308 224" stroke="#41424A"/>
<path d="M340 0L340 224" stroke="#41424A"/>
<line y1="31.5" x2="360" y2="31.5" stroke="#41424A"/>
<line y1="63.5" x2="360" y2="63.5" stroke="#41424A"/>
<line y1="95.5" x2="360" y2="95.5" stroke="#41424A"/>
<line y1="127.5" x2="360" y2="127.5" stroke="#41424A"/>
<line y1="159.5" x2="360" y2="159.5" stroke="#41424A"/>
<line y1="191.5" x2="360" y2="191.5" stroke="#41424A"/>
<line y1="223.5" x2="360" y2="223.5" stroke="#41424A"/>
<path d="M52.25 32H211.75V64H307.75V190.5H52.25V32Z" fill="#FF9900" fill-opacity="0.6"/>
<path d="M75.27 82.24V80.44H73.45V78.42H75.47V80.24H80.71V76.8H75.27V75H73.45V71.2H75.27V69.38H80.91V71.2H82.75V73.2H80.71V71.4H75.47V74.82H80.91V76.6H82.75V80.44H80.91V82.24H75.27ZM85.1688 85.76V74.82H86.9888V73H92.6288V74.82H94.4688V80.44H92.6288V82.24H87.1888V85.76H85.1688ZM87.1888 80.24H92.4288V75H87.1888V80.24ZM98.7075 82.24V80.44H96.8875V74.82H98.7075V73H104.348V74.82H106.188V76.8H104.148V75H98.9075V76.6H102.548V78.62H98.9075V80.24H104.148V78.4H106.188V80.42H104.348V82.24H98.7075ZM110.426 82.24V80.44H108.606V74.82H110.426V73H116.066V74.82H117.906V80.24H119.726V82.24H117.706V80.44H116.066V82.24H110.426ZM110.626 80.24H115.866V75H110.626V80.24ZM121.341 82.24V69.38H123.361V76.6H124.961V74.82H128.601V73H130.641V75H128.801V76.8H125.161V78.42H128.801V80.24H130.641V82.24H128.601V80.44H124.961V78.62H123.361V82.24H121.341ZM133.688 82.24V80.44H131.868V74.82H133.688V73H139.328V74.82H141.168V76.8H139.128V75H133.888V76.6H137.528V78.62H133.888V80.24H139.128V78.4H141.168V80.42H139.328V82.24H133.688ZM143.587 82.24V74.82H145.407V73H151.047V74.82H152.887V76.8H150.847V75H145.607V82.24H143.587ZM154.915 82.24V80.24H162.175V78.62H156.735V76.8H154.915V74.82H156.735V73H164.215V75H156.935V76.6H162.375V78.42H164.215V80.44H162.375V82.24H154.915Z" fill="white"/>
<path d="M94.174 137.082L94.3 132.924H99.55V127.8H94.3L94.216 123.642H99.55V118.896H104.464V146.028H99.55V137.082H94.174ZM105.262 155.31H79.39V143.508H84.388V151.446H105.262V155.31ZM73.678 130.95C73.678 125.532 77.542 121.626 83.548 121.626C89.512 121.626 93.376 125.532 93.376 130.95C93.376 136.368 89.512 140.274 83.548 140.274C77.542 140.274 73.678 136.368 73.678 130.95ZM78.676 130.908C78.676 133.932 80.524 136.158 83.548 136.158C86.53 136.158 88.378 133.932 88.378 130.908C88.378 128.052 86.53 125.784 83.548 125.784C80.524 125.784 78.676 128.052 78.676 130.908ZM138.242 118.896V133.302H143.618V137.334H138.242V156.318H133.37V118.896H138.242ZM131.522 143.718C130.514 144.936 129.632 146.154 128.624 147.372C125.558 145.398 121.232 140.988 119.972 136.914C118.754 141.156 114.974 145.86 111.11 148.128C110.102 146.91 109.136 145.734 108.086 144.558C114.176 140.652 117.368 134.646 117.368 127.17V122.046H122.45V126.918C122.45 134.31 125.852 140.106 131.522 143.718ZM167.106 144.054L164.376 147.624C160.932 145.902 156.48 141.072 155.388 137.46C154.464 141.282 150.684 146.28 146.316 148.422L143.292 144.768C149.508 141.366 152.784 135.612 152.784 127.758V126.75H145.224V122.718H165.174V126.75H157.866V127.716C157.866 135.612 161.478 140.946 167.106 144.054ZM173.784 118.896V133.302H179.118V137.376H173.784V156.318H168.87V118.896H173.784ZM223.047 135.486L220.737 139.35C215.613 138.174 209.229 134.268 207.087 129.354C205.155 134.394 198.603 138.216 193.479 139.35L191.253 135.36C197.343 134.478 204.567 129.774 204.567 123.096V120.828H209.691V123.096C209.691 129.69 217.377 134.562 223.047 135.486ZM224.013 151.656H190.203V147.792H204.525V138.888H209.481V147.792H224.013V151.656ZM257.581 156.318H252.919V137.46H249.601V154.596H245.023V119.568H249.601V133.554H252.919V118.896H257.581V156.318ZM241.621 123.306C241.663 134.478 237.211 143.004 228.055 149.01L224.863 145.608C232.171 141.24 236.245 134.688 236.875 127.254H227.131V123.306H241.621Z" fill="white"/>
</g>
<defs>
<clipPath id="clip0_112_1142">
<rect width="360" height="224" fill="white"/>
</clipPath>
</defs>
</svg>
