<svg width="360" height="224" viewBox="0 0 360 224" fill="none" xmlns="http://www.w3.org/2000/svg">
<g clip-path="url(#clip0_111_1360)">
<path d="M20 0L20 224" stroke="#41424A"/>
<path d="M52 0L52 224" stroke="#41424A"/>
<path d="M84 0L84 224" stroke="#41424A"/>
<path d="M116 0L116 224" stroke="#41424A"/>
<path d="M148 0L148 224" stroke="#41424A"/>
<path d="M180 0L180 224" stroke="#41424A"/>
<path d="M212 0L212 224" stroke="#41424A"/>
<path d="M244 0L244 224" stroke="#41424A"/>
<path d="M276 0L276 224" stroke="#41424A"/>
<path d="M308 0L308 224" stroke="#41424A"/>
<path d="M340 0L340 224" stroke="#41424A"/>
<line y1="31.5" x2="360" y2="31.5" stroke="#41424A"/>
<line y1="63.5" x2="360" y2="63.5" stroke="#41424A"/>
<line y1="95.5" x2="360" y2="95.5" stroke="#41424A"/>
<line y1="127.5" x2="360" y2="127.5" stroke="#41424A"/>
<line y1="159.5" x2="360" y2="159.5" stroke="#41424A"/>
<line y1="191.5" x2="360" y2="191.5" stroke="#41424A"/>
<line y1="223.5" x2="360" y2="223.5" stroke="#41424A"/>
<path d="M0 32H287.5V64H360V191H0V32Z" fill="#703FFF" fill-opacity="0.6"/>
<path d="M32.2 82.24V71.2H34.02V69.38H39.66V71.2H41.5V76.8H39.66V78.62H34.22V82.24H32.2ZM34.22 76.6H39.46V71.4H34.22V76.6ZM43.3133 82.24V74.82H45.1333V73H50.7733V74.82H52.6133V76.8H50.5733V75H45.3333V82.24H43.3133ZM56.2466 82.24V80.44H54.4266V74.82H56.2466V73H61.8866V74.82H63.7266V80.44H61.8866V82.24H56.2466ZM56.4466 80.24H61.6866V75H56.4466V80.24ZM67.9653 85.86V84.06H66.1453V82.06H68.1653V83.86H73.4253V80.44H67.9653V78.62H66.1453V74.82H67.9653V73H73.6253V74.82H75.4453V84.06H73.6253V85.86H67.9653ZM68.1653 78.42H73.4253V75H68.1653V78.42ZM77.8641 82.24V74.82H79.6841V73H85.3241V74.82H87.1641V76.8H85.1241V75H79.8841V82.24H77.8641ZM90.7973 82.24V80.44H88.9773V74.82H90.7973V73H96.4373V74.82H98.2773V80.24H100.097V82.24H98.0773V80.44H96.4373V82.24H90.7973ZM90.9973 80.24H96.2373V75H90.9973V80.24ZM101.907 82.24V73H107.567V74.82H109.167V73H113.027V74.82H114.827V82.24H112.827V75H109.367V82.24H107.367V75H103.927V82.24H101.907ZM121.243 82.24V80.24H128.503V78.62H123.063V76.8H121.243V74.82H123.063V73H130.543V75H123.263V76.6H128.703V78.42H130.543V80.44H128.703V82.24H121.243ZM134.391 82.24V80.44H132.571V74.82H134.391V73H140.031V74.82H141.871V76.8H139.831V75H134.591V80.24H139.831V78.42H141.871V80.44H140.031V82.24H134.391ZM143.899 82.24V69.38H145.919V74.82H147.519V73H151.359V74.82H153.199V82.24H151.159V75H147.719V76.8H145.919V82.24H143.899ZM157.047 82.24V80.44H155.227V74.82H157.047V73H162.687V74.82H164.527V76.8H162.487V75H157.247V76.6H160.887V78.62H157.247V80.24H162.487V78.4H164.527V80.42H162.687V82.24H157.047ZM168.766 82.24V80.44H166.946V74.82H168.766V73H174.226V69.38H176.246V80.44H174.406V82.24H168.766ZM168.966 80.24H174.206V75H168.966V80.24ZM180.094 82.24V80.44H178.274V73H180.294V80.24H185.534V73H187.574V80.44H185.734V82.24H180.094ZM189.993 82.24V69.38H192.013V82.24H189.993ZM195.856 82.24V80.44H194.036V74.82H195.856V73H201.496V74.82H203.336V76.8H201.296V75H196.056V76.6H199.696V78.62H196.056V80.24H201.296V78.4H203.336V80.42H201.496V82.24H195.856Z" fill="white"/>
<path d="M42.298 151.74C39.4 151.74 35.872 151.278 33.856 150.48V120.576H38.686V131.118H38.896C40.492 130.068 42.424 129.27 45.28 129.27C49.312 129.27 53.512 131.748 53.512 139.728V140.232C53.512 147.876 49.606 151.74 42.298 151.74ZM42.592 148.044C45.742 148.044 48.472 146.574 48.472 140.946V140.106C48.472 134.856 46.75 133.218 43.012 133.218C41.206 133.218 39.568 133.848 38.686 134.268V147.414C39.526 147.708 40.744 148.044 42.592 148.044ZM63.6822 151.656C59.4822 151.656 57.1302 149.598 57.1302 145.356V129.648H61.9602V144.432C61.9602 146.784 62.8002 147.75 65.4882 147.75C67.3782 147.75 68.9322 147.078 70.3182 146.448V129.648H75.1482V151.278H70.9482L70.5282 149.388H70.3182C68.5122 150.69 66.4122 151.656 63.6822 151.656ZM80.0432 151.278V129.648H84.9152V151.278H80.0432ZM80.0432 126.078V121.668H84.9572V126.078H80.0432ZM89.9903 151.278V120.576H94.8623V151.278H89.9903ZM107.539 151.656C103.255 151.656 98.7614 148.926 98.7614 141.114V140.568C98.7614 132.63 102.793 129.27 108.421 129.27C110.941 129.27 112.579 129.942 113.587 130.488V120.576H118.375V151.278H114.259L113.839 149.556H113.671C112.327 150.816 110.311 151.656 107.539 151.656ZM109.219 147.918C111.235 147.918 112.747 147.078 113.587 146.448V134.142C112.789 133.512 111.109 133.008 109.177 133.008C105.817 133.008 103.717 134.772 103.717 140.106V140.904C103.717 146.28 105.943 147.918 109.219 147.918ZM132.746 151.656C125.564 151.656 122.036 147.582 122.036 140.736V140.148C122.036 132.882 126.446 129.312 131.948 129.312C138.332 129.312 141.104 132.882 141.104 139.77V141.786H126.992C127.286 146.28 129.596 147.876 133.712 147.876C136.484 147.876 138.5 147.246 140.39 146.28V149.64C138.92 150.606 136.4 151.656 132.746 151.656ZM131.864 132.882C129.638 132.882 127.328 134.058 126.992 138.468H136.19C136.19 134.394 134.678 132.882 131.864 132.882ZM144.726 151.278V129.648H149.388V132.168H149.556C150.732 130.614 152.958 129.48 155.226 129.48C155.814 129.48 156.36 129.522 156.57 129.606V133.89C156.024 133.806 155.31 133.764 154.806 133.764C152.874 133.764 150.942 134.31 149.556 135.192V151.278H144.726ZM165.64 151.614C162.826 151.614 160.306 151.11 158.5 150.144V146.616C160.306 147.33 161.902 147.96 164.926 147.96C167.95 147.96 169.21 146.952 169.21 145.356C169.21 143.802 168.37 143.046 166.018 142.542L164.002 142.08C160.684 141.408 158.5 139.728 158.5 135.864C158.5 131.874 161.062 129.312 166.522 129.312C169.462 129.312 171.31 129.858 172.738 130.488V134.142C171.478 133.596 169.378 132.966 166.942 132.966C164.422 132.966 163.078 133.806 163.078 135.486C163.078 136.998 163.918 137.544 165.976 138.048L168.034 138.51C172.276 139.476 173.914 141.156 173.914 144.894C173.914 149.388 170.932 151.614 165.64 151.614ZM188.321 151.278V122.466H197.771C206.591 122.466 211.547 126.708 211.547 136.116V136.956C211.547 146.196 207.053 151.278 197.813 151.278H188.321ZM193.487 147.204H197.855C203.483 147.204 206.087 144.432 206.087 137.46V136.074C206.087 128.808 202.937 126.54 197.477 126.54H193.487V147.204ZM220.899 151.656C216.993 151.656 214.263 149.682 214.263 145.524C214.263 141.534 216.909 139.686 221.193 139.056L226.275 138.468V136.83C226.275 133.89 224.973 133.218 221.319 133.218C219.219 133.218 217.371 133.512 216.069 133.806V130.488C218.085 129.69 220.395 129.312 223.209 129.312C228.207 129.312 231.105 131.244 231.105 135.738V151.278H227.115L226.737 149.514H226.485C225.435 150.732 223.713 151.656 220.899 151.656ZM222.369 148.254C223.923 148.254 225.477 147.708 226.275 146.952V141.618L222.285 142.038C220.143 142.206 219.009 143.088 219.009 145.272C219.009 147.33 220.395 148.254 222.369 148.254ZM238.365 157.494C237.273 157.494 235.845 157.2 235.215 156.78V153.546C235.761 153.672 236.559 153.756 237.315 153.756C239.289 153.756 240.591 153.252 241.347 151.194L241.935 149.682L233.787 129.648H238.911L244.371 143.676H244.539L249.579 129.648H254.241L245.883 151.866C244.455 155.982 242.355 157.494 238.365 157.494Z" fill="white"/>
<path d="M294.172 151.736H270.878V142.654H288.7V140.298H270.688V136.802H293.108V145.846H275.324V148.164H294.172V151.736ZM293.108 135.092H288.7V118.144H293.108V135.092ZM266.128 127.15C266.128 122.628 269.928 119.284 275.134 119.284C280.302 119.284 284.064 122.552 284.064 127.15C284.064 131.672 280.302 134.712 275.134 134.712C270.118 134.712 266.128 131.786 266.128 127.15ZM270.536 127.112C270.536 129.392 272.512 131.026 275.134 131.026C277.908 131.026 279.656 129.202 279.656 127.112C279.656 124.794 277.984 122.932 275.134 122.932C272.626 122.932 270.536 124.832 270.536 127.112ZM325.493 145.238C325.493 149.342 321.123 151.926 313.637 151.926C306.151 151.926 301.781 149.342 301.781 145.238C301.781 141.02 306.151 138.436 313.637 138.436C321.123 138.436 325.493 141.02 325.493 145.238ZM298.437 124.186V120.538H316.259V124.186H309.837C310.179 128.898 313.599 132.052 317.285 133.268C316.525 134.446 315.689 135.586 314.891 136.764C312.307 135.776 309.001 133.23 307.557 130.152C306.531 133.42 302.959 136.612 299.691 137.752C298.779 136.574 297.943 135.434 297.031 134.294C301.781 132.584 304.897 129.012 305.163 124.186H298.437ZM315.727 129.81V126.238H320.819V118.144H325.265V138.284H320.819V129.81H315.727ZM313.637 142.008C309.039 142.008 306.341 143.186 306.341 145.238C306.341 147.214 309.039 148.392 313.637 148.392C318.311 148.392 320.971 147.214 320.971 145.238C320.971 143.186 318.311 142.008 313.637 142.008Z" fill="white"/>
</g>
<defs>
<clipPath id="clip0_111_1360">
<rect width="360" height="224" fill="white"/>
</clipPath>
</defs>
</svg>
