<svg width="546" height="320" viewBox="0 0 546 320" fill="none" xmlns="http://www.w3.org/2000/svg">
<g clip-path="url(#clip0_24_387)">
<path d="M1.00001 -1L1 479" stroke="#41424A"/>
<path d="M33 -1L33 479" stroke="#41424A"/>
<path d="M65 -1L65 479" stroke="#41424A"/>
<path d="M97 -1L97 479" stroke="#41424A"/>
<path d="M129 -1L129 479" stroke="#41424A"/>
<path d="M161 -1L161 479" stroke="#41424A"/>
<path d="M193 -1L193 479" stroke="#41424A"/>
<path d="M225 -1L225 479" stroke="#41424A"/>
<path d="M257 -1L257 479" stroke="#41424A"/>
<path d="M289 -1L289 479" stroke="#41424A"/>
<path d="M321 -1L321 479" stroke="#41424A"/>
<path d="M353 -1L353 479" stroke="#41424A"/>
<path d="M385 -1L385 479" stroke="#41424A"/>
<path d="M417 -1L417 479" stroke="#41424A"/>
<path d="M449 -1L449 479" stroke="#41424A"/>
<path d="M481 -1L481 479" stroke="#41424A"/>
<path d="M513 -1L513 479" stroke="#41424A"/>
<line y1="31.5" x2="546" y2="31.5" stroke="#41424A"/>
<line y1="63.5" x2="546" y2="63.5" stroke="#41424A"/>
<line y1="95.5" x2="546" y2="95.5" stroke="#41424A"/>
<line y1="127.5" x2="546" y2="127.5" stroke="#41424A"/>
<line y1="159.5" x2="546" y2="159.5" stroke="#41424A"/>
<line y1="191.5" x2="546" y2="191.5" stroke="#41424A"/>
<line y1="223.5" x2="546" y2="223.5" stroke="#41424A"/>
<line y1="255.5" x2="546" y2="255.5" stroke="#41424A"/>
<line y1="287.5" x2="546" y2="287.5" stroke="#41424A"/>
<line y1="319.5" x2="546" y2="319.5" stroke="#41424A"/>
<path d="M31 97H160V129H447V288H31V97Z" fill="#703FFF" fill-opacity="0.6"/>
<rect x="417" y="97" width="31" height="31" fill="#703FFF" fill-opacity="0.6"/>
<rect x="353" y="65" width="63" height="31" fill="#703FFF" fill-opacity="0.6"/>
<rect x="353" y="33" width="31" height="31" fill="#703FFF" fill-opacity="0.6"/>
<rect x="321" y="97" width="31" height="31" fill="#703FFF" fill-opacity="0.6"/>
<rect x="449" y="65" width="63" height="63" fill="#703FFF" fill-opacity="0.6"/>
<path d="M66.44 144.288V131.04H68.624V128.856H75.392V131.04H77.6V133.44H75.152V131.28H68.864V135.384H73.232V137.76H68.864V144.288H66.44ZM80.5025 144.288V133.2H82.6865V131.04H84.8465V128.856H87.2945V131.04H89.4545V133.2H91.6625V144.288H89.2145V139.944H82.9265V144.288H80.5025ZM82.9265 137.52H89.2145V133.44H87.0545V131.28H85.0865V133.44H82.9265V137.52ZM101.117 148.608V146.472H98.909V144.288H96.749V142.128H94.565V131.04H96.749V128.856H103.517V131.04H105.725V142.128H103.517V144.288H101.357V146.232H103.517V148.608H101.117ZM96.989 141.888H103.277V131.28H96.989V141.888Z" fill="white"/>
<path d="M99.08 234.22L95.18 239.32C90.26 236.86 83.9 229.96 82.34 224.8C81.02 230.26 75.62 237.4 69.38 240.46L65.06 235.24C73.94 230.38 78.62 222.16 78.62 210.94V209.5H67.82V203.74H96.32V209.5H85.88V210.88C85.88 222.16 91.04 229.78 99.08 234.22ZM108.62 198.28V218.86H116.24V224.68H108.62V251.74H101.6V198.28H108.62ZM123.334 223.6L120.274 218.14C128.314 217.3 137.194 212.5 138.394 206.14H122.434V200.56H162.034V206.14H146.074C147.334 212.5 156.274 217.06 164.254 217.9C163.294 219.76 162.274 221.56 161.314 223.36C154.354 222.58 145.174 217.72 142.234 212.62C139.414 218.08 130.654 222.64 123.334 223.6ZM145.654 251.68H138.574V233.08H118.114V227.5H166.414V233.08H145.654V251.68ZM227.37 251.08H190.77V232.66H205.11V227.86H184.59V222.22H232.89V227.86H212.13V232.66H226.77V238.24H197.73V245.5H227.37V251.08ZM226.47 218.08H191.01V199.6H226.47V218.08ZM219.33 212.62V205.06H198.03V212.62H219.33ZM284.204 230.26H235.904V224.62H284.204V230.26ZM278.264 218.62H242.384V200.02H249.404V213.04H278.264V218.62ZM278.624 250.3H242.084V234.52H249.044V244.72H278.624V250.3ZM348.22 251.32H311.44V237.04H339.58V233.62H311.08V228.04H346.54V242.2H318.52V245.68H348.22V251.32ZM304.78 206.74V201.16H332.98V206.74H322.9C323.86 213.52 329.02 217.54 334.54 219.28L330.7 224.74C326.68 223.3 321.58 219.1 319.18 214.48C317.56 219.76 312.04 224.44 306.88 226.24L302.68 220.9C309.64 218.32 314.56 213.7 315.4 206.74H304.78ZM346.54 225.34H339.58V198.28H346.54V225.34ZM395.574 200.32V219.64H360.054V200.32H395.574ZM381.834 240.04H374.814V230.2H353.694V224.62H401.994V230.2H381.834V240.04ZM396.414 250.3H359.874V235H366.894V244.78H396.414V250.3ZM388.554 214.06V205.9H367.134V214.06H388.554Z" fill="white"/>
</g>
<defs>
<clipPath id="clip0_24_387">
<rect width="545.5" height="320" fill="white"/>
</clipPath>
</defs>
</svg>
