<svg width="360" height="224" viewBox="0 0 360 224" fill="none" xmlns="http://www.w3.org/2000/svg">
<g clip-path="url(#clip0_32_1400)">
<path d="M20 0L20 224" stroke="#41424A"/>
<path d="M52 0L52 224" stroke="#41424A"/>
<path d="M84 0L84 224" stroke="#41424A"/>
<path d="M116 0L116 224" stroke="#41424A"/>
<path d="M148 0L148 224" stroke="#41424A"/>
<path d="M180 0L180 224" stroke="#41424A"/>
<path d="M212 0L212 224" stroke="#41424A"/>
<path d="M244 0L244 224" stroke="#41424A"/>
<path d="M276 0L276 224" stroke="#41424A"/>
<path d="M308 0L308 224" stroke="#41424A"/>
<path d="M340 0L340 224" stroke="#41424A"/>
<line y1="31.5" x2="360" y2="31.5" stroke="#41424A"/>
<line y1="63.5" x2="360" y2="63.5" stroke="#41424A"/>
<line y1="95.5" x2="360" y2="95.5" stroke="#41424A"/>
<line y1="127.5" x2="360" y2="127.5" stroke="#41424A"/>
<line y1="159.5" x2="360" y2="159.5" stroke="#41424A"/>
<line y1="191.5" x2="360" y2="191.5" stroke="#41424A"/>
<line y1="223.5" x2="360" y2="223.5" stroke="#41424A"/>
<path d="M0 32H287.5V64H360V191H0V32Z" fill="#703FFF" fill-opacity="0.6"/>
<path d="M32.2 82.24V71.2H34.02V69.38H39.66V71.2H41.5V76.8H39.66V78.62H34.22V82.24H32.2ZM34.22 76.6H39.46V71.4H34.22V76.6ZM43.3133 82.24V74.82H45.1333V73H50.7733V74.82H52.6133V76.8H50.5733V75H45.3333V82.24H43.3133ZM56.2466 82.24V80.44H54.4266V74.82H56.2466V73H61.8866V74.82H63.7266V80.44H61.8866V82.24H56.2466ZM56.4466 80.24H61.6866V75H56.4466V80.24ZM67.9653 85.86V84.06H66.1453V82.06H68.1653V83.86H73.4253V80.44H67.9653V78.62H66.1453V74.82H67.9653V73H73.6253V74.82H75.4453V84.06H73.6253V85.86H67.9653ZM68.1653 78.42H73.4253V75H68.1653V78.42ZM77.8641 82.24V74.82H79.6841V73H85.3241V74.82H87.1641V76.8H85.1241V75H79.8841V82.24H77.8641ZM90.7973 82.24V80.44H88.9773V74.82H90.7973V73H96.4373V74.82H98.2773V80.24H100.097V82.24H98.0773V80.44H96.4373V82.24H90.7973ZM90.9973 80.24H96.2373V75H90.9973V80.24ZM101.907 82.24V73H107.567V74.82H109.167V73H113.027V74.82H114.827V82.24H112.827V75H109.367V82.24H107.367V75H103.927V82.24H101.907ZM121.243 82.24V80.24H128.503V78.62H123.063V76.8H121.243V74.82H123.063V73H130.543V75H123.263V76.6H128.703V78.42H130.543V80.44H128.703V82.24H121.243ZM134.391 82.24V80.44H132.571V74.82H134.391V73H140.031V74.82H141.871V76.8H139.831V75H134.591V80.24H139.831V78.42H141.871V80.44H140.031V82.24H134.391ZM143.899 82.24V69.38H145.919V74.82H147.519V73H151.359V74.82H153.199V82.24H151.159V75H147.719V76.8H145.919V82.24H143.899ZM157.047 82.24V80.44H155.227V74.82H157.047V73H162.687V74.82H164.527V76.8H162.487V75H157.247V76.6H160.887V78.62H157.247V80.24H162.487V78.4H164.527V80.42H162.687V82.24H157.047ZM168.766 82.24V80.44H166.946V74.82H168.766V73H174.226V69.38H176.246V80.44H174.406V82.24H168.766ZM168.966 80.24H174.206V75H168.966V80.24ZM180.094 82.24V80.44H178.274V73H180.294V80.24H185.534V73H187.574V80.44H185.734V82.24H180.094ZM189.993 82.24V69.38H192.013V82.24H189.993ZM195.856 82.24V80.44H194.036V74.82H195.856V73H201.496V74.82H203.336V76.8H201.296V75H196.056V76.6H199.696V78.62H196.056V80.24H201.296V78.4H203.336V80.42H201.496V82.24H195.856Z" fill="white"/>
<path d="M34.402 151.278V122.466H44.482C51.118 122.466 53.974 125.154 53.974 129.732C53.974 132.756 52.714 134.94 49.27 136.032V136.158C52.882 136.83 55.234 138.846 55.234 143.046C55.234 147.834 52 151.278 45.196 151.278H34.402ZM39.526 147.414H44.482C47.968 147.414 49.816 145.902 49.816 142.752C49.816 139.434 47.842 138.174 44.188 138.174H39.526V147.414ZM39.526 134.73H43.558C46.582 134.73 48.85 133.722 48.85 130.446C48.85 127.338 47.086 126.288 43.768 126.288H39.526V134.73ZM65.5279 151.656C61.3279 151.656 58.9759 149.598 58.9759 145.356V129.648H63.8059V144.432C63.8059 146.784 64.6459 147.75 67.3339 147.75C69.2239 147.75 70.7779 147.078 72.1639 146.448V129.648H76.9939V151.278H72.7939L72.3739 149.388H72.1639C70.3579 150.69 68.2579 151.656 65.5279 151.656ZM81.8889 151.278V129.648H86.7609V151.278H81.8889ZM81.8889 126.078V121.668H86.8029V126.078H81.8889ZM91.836 151.278V120.576H96.708V151.278H91.836ZM109.385 151.656C105.101 151.656 100.607 148.926 100.607 141.114V140.568C100.607 132.63 104.639 129.27 110.267 129.27C112.787 129.27 114.425 129.942 115.433 130.488V120.576H120.221V151.278H116.105L115.685 149.556H115.517C114.173 150.816 112.157 151.656 109.385 151.656ZM111.065 147.918C113.081 147.918 114.593 147.078 115.433 146.448V134.142C114.635 133.512 112.955 133.008 111.023 133.008C107.663 133.008 105.563 134.772 105.563 140.106V140.904C105.563 146.28 107.789 147.918 111.065 147.918ZM134.591 151.656C127.409 151.656 123.881 147.582 123.881 140.736V140.148C123.881 132.882 128.291 129.312 133.793 129.312C140.177 129.312 142.949 132.882 142.949 139.77V141.786H128.837C129.131 146.28 131.441 147.876 135.557 147.876C138.329 147.876 140.345 147.246 142.235 146.28V149.64C140.765 150.606 138.245 151.656 134.591 151.656ZM133.709 132.882C131.483 132.882 129.173 134.058 128.837 138.468H138.035C138.035 134.394 136.523 132.882 133.709 132.882ZM146.572 151.278V129.648H151.234V132.168H151.402C152.578 130.614 154.804 129.48 157.072 129.48C157.66 129.48 158.206 129.522 158.416 129.606V133.89C157.87 133.806 157.156 133.764 156.652 133.764C154.72 133.764 152.788 134.31 151.402 135.192V151.278H146.572ZM167.486 151.614C164.672 151.614 162.152 151.11 160.346 150.144V146.616C162.152 147.33 163.748 147.96 166.772 147.96C169.796 147.96 171.056 146.952 171.056 145.356C171.056 143.802 170.216 143.046 167.864 142.542L165.848 142.08C162.53 141.408 160.346 139.728 160.346 135.864C160.346 131.874 162.908 129.312 168.368 129.312C171.308 129.312 173.156 129.858 174.584 130.488V134.142C173.324 133.596 171.224 132.966 168.788 132.966C166.268 132.966 164.924 133.806 164.924 135.486C164.924 136.998 165.764 137.544 167.822 138.048L169.88 138.51C174.122 139.476 175.76 141.156 175.76 144.894C175.76 149.388 172.778 151.614 167.486 151.614ZM190.166 151.278V122.466H199.616C208.436 122.466 213.392 126.708 213.392 136.116V136.956C213.392 146.196 208.898 151.278 199.658 151.278H190.166ZM195.332 147.204H199.7C205.328 147.204 207.932 144.432 207.932 137.46V136.074C207.932 128.808 204.782 126.54 199.322 126.54H195.332V147.204ZM222.745 151.656C218.839 151.656 216.109 149.682 216.109 145.524C216.109 141.534 218.755 139.686 223.039 139.056L228.121 138.468V136.83C228.121 133.89 226.819 133.218 223.165 133.218C221.065 133.218 219.217 133.512 217.915 133.806V130.488C219.931 129.69 222.241 129.312 225.055 129.312C230.053 129.312 232.951 131.244 232.951 135.738V151.278H228.961L228.583 149.514H228.331C227.281 150.732 225.559 151.656 222.745 151.656ZM224.215 148.254C225.769 148.254 227.323 147.708 228.121 146.952V141.618L224.131 142.038C221.989 142.206 220.855 143.088 220.855 145.272C220.855 147.33 222.241 148.254 224.215 148.254ZM240.211 157.494C239.119 157.494 237.691 157.2 237.061 156.78V153.546C237.607 153.672 238.405 153.756 239.161 153.756C241.135 153.756 242.437 153.252 243.193 151.194L243.781 149.682L235.633 129.648H240.757L246.217 143.676H246.385L251.425 129.648H256.087L247.729 151.866C246.301 155.982 244.201 157.494 240.211 157.494Z" fill="white"/>
<path d="M294.172 151.736H270.878V142.654H288.7V140.298H270.688V136.802H293.108V145.846H275.324V148.164H294.172V151.736ZM293.108 135.092H288.7V118.144H293.108V135.092ZM266.128 127.15C266.128 122.628 269.928 119.284 275.134 119.284C280.302 119.284 284.064 122.552 284.064 127.15C284.064 131.672 280.302 134.712 275.134 134.712C270.118 134.712 266.128 131.786 266.128 127.15ZM270.536 127.112C270.536 129.392 272.512 131.026 275.134 131.026C277.908 131.026 279.656 129.202 279.656 127.112C279.656 124.794 277.984 122.932 275.134 122.932C272.626 122.932 270.536 124.832 270.536 127.112ZM325.493 145.238C325.493 149.342 321.123 151.926 313.637 151.926C306.151 151.926 301.781 149.342 301.781 145.238C301.781 141.02 306.151 138.436 313.637 138.436C321.123 138.436 325.493 141.02 325.493 145.238ZM298.437 124.186V120.538H316.259V124.186H309.837C310.179 128.898 313.599 132.052 317.285 133.268C316.525 134.446 315.689 135.586 314.891 136.764C312.307 135.776 309.001 133.23 307.557 130.152C306.531 133.42 302.959 136.612 299.691 137.752C298.779 136.574 297.943 135.434 297.031 134.294C301.781 132.584 304.897 129.012 305.163 124.186H298.437ZM315.727 129.81V126.238H320.819V118.144H325.265V138.284H320.819V129.81H315.727ZM313.637 142.008C309.039 142.008 306.341 143.186 306.341 145.238C306.341 147.214 309.039 148.392 313.637 148.392C318.311 148.392 320.971 147.214 320.971 145.238C320.971 143.186 318.311 142.008 313.637 142.008Z" fill="white"/>
</g>
<defs>
<clipPath id="clip0_32_1400">
<rect width="360" height="224" fill="white"/>
</clipPath>
</defs>
</svg>
