<svg width="1376" height="257" viewBox="0 0 1376 257" fill="none" xmlns="http://www.w3.org/2000/svg">
<g clip-path="url(#clip0_11_445)">
<path d="M32 0L32 417" stroke="#41424A"/>
<path d="M64 0L64 417" stroke="#41424A"/>
<path d="M96.0001 0L96 417" stroke="#41424A"/>
<path d="M128 0L128 417" stroke="#41424A"/>
<path d="M160 0L160 417" stroke="#41424A"/>
<path d="M192 0L192 417" stroke="#41424A"/>
<path d="M224 0L224 417" stroke="#41424A"/>
<path d="M256 0L256 417" stroke="#41424A"/>
<path d="M288 0L288 417" stroke="#41424A"/>
<path d="M320 0L320 417" stroke="#41424A"/>
<path d="M352 0L352 417" stroke="#41424A"/>
<path d="M384 0L384 417" stroke="#41424A"/>
<path d="M416 0L416 417" stroke="#41424A"/>
<path d="M448 0L448 417" stroke="#41424A"/>
<path d="M480 0L480 417" stroke="#41424A"/>
<path d="M512 0L512 417" stroke="#41424A"/>
<path d="M544 0L544 417" stroke="#41424A"/>
<path d="M576 0L576 417" stroke="#41424A"/>
<path d="M608 0L608 417" stroke="#41424A"/>
<path d="M640 0L640 417" stroke="#41424A"/>
<path d="M672 0L672 417" stroke="#41424A"/>
<path d="M704 0L704 417" stroke="#41424A"/>
<path d="M736 0L736 417" stroke="#41424A"/>
<path d="M768 0L768 417" stroke="#41424A"/>
<path d="M800 0L800 417" stroke="#41424A"/>
<path d="M832 0L832 417" stroke="#41424A"/>
<path d="M864 0L864 417" stroke="#41424A"/>
<path d="M896 0L896 417" stroke="#41424A"/>
<path d="M928 0L928 417" stroke="#41424A"/>
<path d="M960 0L960 417" stroke="#41424A"/>
<path d="M992 0L992 417" stroke="#41424A"/>
<path d="M1024 0L1024 417" stroke="#41424A"/>
<path d="M1056 0L1056 417" stroke="#41424A"/>
<path d="M1088 0L1088 417" stroke="#41424A"/>
<path d="M1120 0L1120 417" stroke="#41424A"/>
<path d="M1152 0L1152 417" stroke="#41424A"/>
<path d="M1184 0L1184 417" stroke="#41424A"/>
<path d="M1216 0L1216 417" stroke="#41424A"/>
<path d="M1248 0L1248 417" stroke="#41424A"/>
<path d="M1280 0L1280 417" stroke="#41424A"/>
<path d="M1312 0L1312 417" stroke="#41424A"/>
<path d="M1344 0L1344 417" stroke="#41424A"/>
<line y1="0.5" x2="1376" y2="0.5" stroke="#41424A"/>
<line y1="32.5" x2="1376" y2="32.5" stroke="#41424A"/>
<line y1="64.5" x2="1376" y2="64.5" stroke="#41424A"/>
<line y1="96.5" x2="1376" y2="96.5" stroke="#41424A"/>
<line y1="128.5" x2="1376" y2="128.5" stroke="#41424A"/>
<line y1="160.5" x2="1376" y2="160.5" stroke="#41424A"/>
<line y1="192.5" x2="1376" y2="192.5" stroke="#41424A"/>
<line y1="224.5" x2="1376" y2="224.5" stroke="#41424A"/>
<line y1="256.5" x2="1376" y2="256.5" stroke="#41424A"/>
<path d="M511.75 32.5H800.25V96.5H864.25V225.5H511.75V32.5Z" fill="#FF9900" fill-opacity="0.6"/>
<path d="M547.374 86.788V84.628H545.19V82.204H547.614V84.388H553.902V80.26H547.374V78.1H545.19V73.54H547.374V71.356H554.142V73.54H556.35V75.94H553.902V73.78H547.614V77.884H554.142V80.02H556.35V84.628H554.142V86.788H547.374ZM559.253 91.012V77.884H561.437V75.7H568.205V77.884H570.413V84.628H568.205V86.788H561.677V91.012H559.253ZM561.677 84.388H567.965V78.1H561.677V84.388ZM575.499 86.788V84.628H573.315V77.884H575.499V75.7H582.267V77.884H584.475V80.26H582.027V78.1H575.739V80.02H580.107V82.444H575.739V84.388H582.027V82.18H584.475V84.604H582.267V86.788H575.499ZM589.562 86.788V84.628H587.378V77.884H589.562V75.7H596.33V77.884H598.538V84.388H600.722V86.788H598.298V84.628H596.33V86.788H589.562ZM589.802 84.388H596.09V78.1H589.802V84.388ZM602.659 86.788V71.356H605.083V80.02H607.003V77.884H611.371V75.7H613.819V78.1H611.611V80.26H607.243V82.204H611.611V84.388H613.819V86.788H611.371V84.628H607.003V82.444H605.083V86.788H602.659ZM617.476 86.788V84.628H615.292V77.884H617.476V75.7H624.244V77.884H626.452V80.26H624.004V78.1H617.716V80.02H622.084V82.444H617.716V84.388H624.004V82.18H626.452V84.604H624.244V86.788H617.476ZM629.354 86.788V77.884H631.538V75.7H638.306V77.884H640.514V80.26H638.066V78.1H631.778V86.788H629.354ZM642.948 86.788V84.388H651.66V82.444H645.132V80.26H642.948V77.884H645.132V75.7H654.108V78.1H645.372V80.02H651.9V82.204H654.108V84.628H651.9V86.788H642.948Z" fill="white"/>
<path d="M575.07 166.76L575.25 160.82H582.75V153.5H575.25L575.13 147.56H582.75V140.78H589.77V179.54H582.75V166.76H575.07ZM590.91 192.8H553.95V175.94H561.09V187.28H590.91V192.8ZM545.79 158C545.79 150.26 551.31 144.68 559.89 144.68C568.41 144.68 573.93 150.26 573.93 158C573.93 165.74 568.41 171.32 559.89 171.32C551.31 171.32 545.79 165.74 545.79 158ZM552.93 157.94C552.93 162.26 555.57 165.44 559.89 165.44C564.15 165.44 566.79 162.26 566.79 157.94C566.79 153.86 564.15 150.62 559.89 150.62C555.57 150.62 552.93 153.86 552.93 157.94ZM638.624 140.78V161.36H646.304V167.12H638.624V194.24H631.664V140.78H638.624ZM629.024 176.24C627.584 177.98 626.324 179.72 624.884 181.46C620.504 178.64 614.324 172.34 612.524 166.52C610.784 172.58 605.384 179.3 599.864 182.54C598.424 180.8 597.044 179.12 595.544 177.44C604.244 171.86 608.804 163.28 608.804 152.6V145.28H616.064V152.24C616.064 162.8 620.924 171.08 629.024 176.24ZM680.458 176.72L676.558 181.82C671.638 179.36 665.278 172.46 663.718 167.3C662.398 172.76 656.998 179.9 650.758 182.96L646.438 177.74C655.318 172.88 659.998 164.66 659.998 153.44V152H649.198V146.24H677.698V152H667.258V153.38C667.258 164.66 672.418 172.28 680.458 176.72ZM689.998 140.78V161.36H697.618V167.18H689.998V194.24H682.978V140.78H689.998ZM761.574 164.48L758.274 170C750.954 168.32 741.834 162.74 738.774 155.72C736.014 162.92 726.654 168.38 719.334 170L716.154 164.3C724.854 163.04 735.174 156.32 735.174 146.78V143.54H742.494V146.78C742.494 156.2 753.474 163.16 761.574 164.48ZM762.954 187.58H714.654V182.06H735.114V169.34H742.194V182.06H762.954V187.58ZM811.508 194.24H804.848V167.3H800.108V191.78H793.568V141.74H800.108V161.72H804.848V140.78H811.508V194.24ZM788.708 147.08C788.768 163.04 782.408 175.22 769.328 183.8L764.768 178.94C775.208 172.7 781.028 163.34 781.928 152.72H768.008V147.08H788.708Z" fill="white"/>
</g>
<defs>
<clipPath id="clip0_11_445">
<rect width="1376" height="257" fill="white"/>
</clipPath>
</defs>
</svg>
