<svg width="1376" height="257" viewBox="0 0 1376 257" fill="none" xmlns="http://www.w3.org/2000/svg">
<g clip-path="url(#clip0_3_2468)">
<path d="M32 0L32 417" stroke="#41424A"/>
<path d="M64 0L64 417" stroke="#41424A"/>
<path d="M96.0001 0L96 417" stroke="#41424A"/>
<path d="M128 0L128 417" stroke="#41424A"/>
<path d="M160 0L160 417" stroke="#41424A"/>
<path d="M192 0L192 417" stroke="#41424A"/>
<path d="M224 0L224 417" stroke="#41424A"/>
<path d="M256 0L256 417" stroke="#41424A"/>
<path d="M288 0L288 417" stroke="#41424A"/>
<path d="M320 0L320 417" stroke="#41424A"/>
<path d="M352 0L352 417" stroke="#41424A"/>
<path d="M384 0L384 417" stroke="#41424A"/>
<path d="M416 0L416 417" stroke="#41424A"/>
<path d="M448 0L448 417" stroke="#41424A"/>
<path d="M480 0L480 417" stroke="#41424A"/>
<path d="M512 0L512 417" stroke="#41424A"/>
<path d="M544 0L544 417" stroke="#41424A"/>
<path d="M576 0L576 417" stroke="#41424A"/>
<path d="M608 0L608 417" stroke="#41424A"/>
<path d="M640 0L640 417" stroke="#41424A"/>
<path d="M672 0L672 417" stroke="#41424A"/>
<path d="M704 0L704 417" stroke="#41424A"/>
<path d="M736 0L736 417" stroke="#41424A"/>
<path d="M768 0L768 417" stroke="#41424A"/>
<path d="M800 0L800 417" stroke="#41424A"/>
<path d="M832 0L832 417" stroke="#41424A"/>
<path d="M864 0L864 417" stroke="#41424A"/>
<path d="M896 0L896 417" stroke="#41424A"/>
<path d="M928 0L928 417" stroke="#41424A"/>
<path d="M960 0L960 417" stroke="#41424A"/>
<path d="M992 0L992 417" stroke="#41424A"/>
<path d="M1024 0L1024 417" stroke="#41424A"/>
<path d="M1056 0L1056 417" stroke="#41424A"/>
<path d="M1088 0L1088 417" stroke="#41424A"/>
<path d="M1120 0L1120 417" stroke="#41424A"/>
<path d="M1152 0L1152 417" stroke="#41424A"/>
<path d="M1184 0L1184 417" stroke="#41424A"/>
<path d="M1216 0L1216 417" stroke="#41424A"/>
<path d="M1248 0L1248 417" stroke="#41424A"/>
<path d="M1280 0L1280 417" stroke="#41424A"/>
<path d="M1312 0L1312 417" stroke="#41424A"/>
<path d="M1344 0L1344 417" stroke="#41424A"/>
<line y1="0.5" x2="1376" y2="0.5" stroke="#41424A"/>
<line y1="32.5" x2="1376" y2="32.5" stroke="#41424A"/>
<line y1="64.5" x2="1376" y2="64.5" stroke="#41424A"/>
<line y1="96.5" x2="1376" y2="96.5" stroke="#41424A"/>
<line y1="128.5" x2="1376" y2="128.5" stroke="#41424A"/>
<line y1="160.5" x2="1376" y2="160.5" stroke="#41424A"/>
<line y1="192.5" x2="1376" y2="192.5" stroke="#41424A"/>
<line y1="224.5" x2="1376" y2="224.5" stroke="#41424A"/>
<line y1="256.5" x2="1376" y2="256.5" stroke="#41424A"/>
<path d="M432.5 32.5H737.5V96.5L943.5 96.366V223.933H432.5V32.5Z" fill="#703FFF" fill-opacity="0.6"/>
<path d="M465.44 88.288V75.04H467.624V72.856H474.392V75.04H476.6V81.76H474.392V83.944H467.864V88.288H465.44ZM467.864 81.52H474.152V75.28H467.864V81.52ZM478.776 88.288V79.384H480.96V77.2H487.728V79.384H489.936V81.76H487.488V79.6H481.2V88.288H478.776ZM494.296 88.288V86.128H492.112V79.384H494.296V77.2H501.064V79.384H503.272V86.128H501.064V88.288H494.296ZM494.536 85.888H500.824V79.6H494.536V85.888ZM508.358 92.632V90.472H506.174V88.072H508.598V90.232H514.91V86.128H508.358V83.944H506.174V79.384H508.358V77.2H515.15V79.384H517.334V90.472H515.15V92.632H508.358ZM508.598 83.704H514.91V79.6H508.598V83.704ZM520.237 88.288V79.384H522.421V77.2H529.189V79.384H531.397V81.76H528.949V79.6H522.661V88.288H520.237ZM535.757 88.288V86.128H533.573V79.384H535.757V77.2H542.525V79.384H544.733V85.888H546.917V88.288H544.493V86.128H542.525V88.288H535.757ZM535.997 85.888H542.285V79.6H535.997V85.888ZM549.088 88.288V77.2H555.88V79.384H557.8V77.2H562.432V79.384H564.592V88.288H562.192V79.6H558.04V88.288H555.64V79.6H551.512V88.288H549.088ZM572.292 88.288V85.888H581.004V83.944H574.476V81.76H572.292V79.384H574.476V77.2H583.452V79.6H574.716V81.52H581.244V83.704H583.452V86.128H581.244V88.288H572.292ZM588.069 88.288V86.128H585.885V79.384H588.069V77.2H594.837V79.384H597.045V81.76H594.597V79.6H588.309V85.888H594.597V83.704H597.045V86.128H594.837V88.288H588.069ZM599.479 88.288V72.856H601.903V79.384H603.823V77.2H608.431V79.384H610.639V88.288H608.191V79.6H604.063V81.76H601.903V88.288H599.479ZM615.257 88.288V86.128H613.073V79.384H615.257V77.2H622.025V79.384H624.233V81.76H621.785V79.6H615.497V81.52H619.865V83.944H615.497V85.888H621.785V83.68H624.233V86.104H622.025V88.288H615.257ZM629.319 88.288V86.128H627.135V79.384H629.319V77.2H635.871V72.856H638.295V86.128H636.087V88.288H629.319ZM629.559 85.888H635.847V79.6H629.559V85.888ZM642.913 88.288V86.128H640.729V77.2H643.153V85.888H649.441V77.2H651.889V86.128H649.681V88.288H642.913ZM654.792 88.288V72.856H657.216V88.288H654.792ZM661.827 88.288V86.128H659.643V79.384H661.827V77.2H668.595V79.384H670.803V81.76H668.355V79.6H662.067V81.52H666.435V83.944H662.067V85.888H668.355V83.68H670.803V86.104H668.595V88.288H661.827Z" fill="white"/>
<path d="M480.678 184.14C476.4 184.14 471.192 183.458 468.216 182.28V138.136H475.346V153.698H475.656C478.012 152.148 480.864 150.97 485.08 150.97C491.032 150.97 497.232 154.628 497.232 166.408V167.152C497.232 178.436 491.466 184.14 480.678 184.14ZM481.112 178.684C485.762 178.684 489.792 176.514 489.792 168.206V166.966C489.792 159.216 487.25 156.798 481.732 156.798C479.066 156.798 476.648 157.728 475.346 158.348V177.754C476.586 178.188 478.384 178.684 481.112 178.684ZM512.245 184.016C506.045 184.016 502.573 180.978 502.573 174.716V151.528H509.703V173.352C509.703 176.824 510.943 178.25 514.911 178.25C517.701 178.25 519.995 177.258 522.041 176.328V151.528H529.171V183.458H522.971L522.351 180.668H522.041C519.375 182.59 516.275 184.016 512.245 184.016ZM536.397 183.458V151.528H543.589V183.458H536.397ZM536.397 146.258V139.748H543.651V146.258H536.397ZM551.081 183.458V138.136H558.273V183.458H551.081ZM576.987 184.016C570.663 184.016 564.029 179.986 564.029 168.454V167.648C564.029 155.93 569.981 150.97 578.289 150.97C582.009 150.97 584.427 151.962 585.915 152.768V138.136H592.983V183.458H586.907L586.287 180.916H586.039C584.055 182.776 581.079 184.016 576.987 184.016ZM579.467 178.498C582.443 178.498 584.675 177.258 585.915 176.328V158.162C584.737 157.232 582.257 156.488 579.405 156.488C574.445 156.488 571.345 159.092 571.345 166.966V168.144C571.345 176.08 574.631 178.498 579.467 178.498ZM614.196 184.016C603.594 184.016 598.386 178.002 598.386 167.896V167.028C598.386 156.302 604.896 151.032 613.018 151.032C622.442 151.032 626.534 156.302 626.534 166.47V169.446H605.702C606.136 176.08 609.546 178.436 615.622 178.436C619.714 178.436 622.69 177.506 625.48 176.08V181.04C623.31 182.466 619.59 184.016 614.196 184.016ZM612.894 156.302C609.608 156.302 606.198 158.038 605.702 164.548H619.28C619.28 158.534 617.048 156.302 612.894 156.302ZM631.881 183.458V151.528H638.763V155.248H639.011C640.747 152.954 644.033 151.28 647.381 151.28C648.249 151.28 649.055 151.342 649.365 151.466V157.79C648.559 157.666 647.505 157.604 646.761 157.604C643.909 157.604 641.057 158.41 639.011 159.712V183.458H631.881ZM662.755 183.954C658.601 183.954 654.881 183.21 652.215 181.784V176.576C654.881 177.63 657.237 178.56 661.701 178.56C666.165 178.56 668.025 177.072 668.025 174.716C668.025 172.422 666.785 171.306 663.313 170.562L660.337 169.88C655.439 168.888 652.215 166.408 652.215 160.704C652.215 154.814 655.997 151.032 664.057 151.032C668.397 151.032 671.125 151.838 673.233 152.768V158.162C671.373 157.356 668.273 156.426 664.677 156.426C660.957 156.426 658.973 157.666 658.973 160.146C658.973 162.378 660.213 163.184 663.251 163.928L666.289 164.61C672.551 166.036 674.969 168.516 674.969 174.034C674.969 180.668 670.567 183.954 662.755 183.954ZM696.235 183.458V140.926H710.185C723.205 140.926 730.521 147.188 730.521 161.076V162.316C730.521 175.956 723.887 183.458 710.247 183.458H696.235ZM703.861 177.444H710.309C718.617 177.444 722.461 173.352 722.461 163.06V161.014C722.461 150.288 717.811 146.94 709.751 146.94H703.861V177.444ZM744.328 184.016C738.562 184.016 734.532 181.102 734.532 174.964C734.532 169.074 738.438 166.346 744.762 165.416L752.264 164.548V162.13C752.264 157.79 750.342 156.798 744.948 156.798C741.848 156.798 739.12 157.232 737.198 157.666V152.768C740.174 151.59 743.584 151.032 747.738 151.032C755.116 151.032 759.394 153.884 759.394 160.518V183.458H753.504L752.946 180.854H752.574C751.024 182.652 748.482 184.016 744.328 184.016ZM746.498 178.994C748.792 178.994 751.086 178.188 752.264 177.072V169.198L746.374 169.818C743.212 170.066 741.538 171.368 741.538 174.592C741.538 177.63 743.584 178.994 746.498 178.994ZM770.111 192.634C768.499 192.634 766.391 192.2 765.461 191.58V186.806C766.267 186.992 767.445 187.116 768.561 187.116C771.475 187.116 773.397 186.372 774.513 183.334L775.381 181.102L763.353 151.528H770.917L778.977 172.236H779.225L786.665 151.528H793.547L781.209 184.326C779.101 190.402 776.001 192.634 770.111 192.634ZM853.022 190.032H818.694V176.648H844.958V173.176H818.414V168.024H851.454V181.352H825.246V184.768H853.022V190.032ZM851.454 165.504H844.958V140.528H851.454V165.504ZM811.694 153.8C811.694 147.136 817.294 142.208 824.966 142.208C832.582 142.208 838.126 147.024 838.126 153.8C838.126 160.464 832.582 164.944 824.966 164.944C817.574 164.944 811.694 160.632 811.694 153.8ZM818.19 153.744C818.19 157.104 821.102 159.512 824.966 159.512C829.054 159.512 831.63 156.824 831.63 153.744C831.63 150.328 829.166 147.584 824.966 147.584C821.27 147.584 818.19 150.384 818.19 153.744ZM899.179 180.456C899.179 186.504 892.739 190.312 881.707 190.312C870.675 190.312 864.235 186.504 864.235 180.456C864.235 174.24 870.675 170.432 881.707 170.432C892.739 170.432 899.179 174.24 899.179 180.456ZM859.307 149.432V144.056H885.571V149.432H876.107C876.611 156.376 881.651 161.024 887.083 162.816C885.963 164.552 884.731 166.232 883.555 167.968C879.747 166.512 874.875 162.76 872.747 158.224C871.235 163.04 865.971 167.744 861.155 169.424C859.811 167.688 858.579 166.008 857.235 164.328C864.235 161.808 868.827 156.544 869.219 149.432H859.307ZM884.787 157.72V152.456H892.291V140.528H898.843V170.208H892.291V157.72H884.787ZM881.707 175.696C874.931 175.696 870.955 177.432 870.955 180.456C870.955 183.368 874.931 185.104 881.707 185.104C888.595 185.104 892.515 183.368 892.515 180.456C892.515 177.432 888.595 175.696 881.707 175.696Z" fill="white"/>
</g>
<defs>
<clipPath id="clip0_3_2468">
<rect width="1376" height="257" fill="white"/>
</clipPath>
</defs>
</svg>
