<svg width="545" height="320" viewBox="0 0 545 320" fill="none" xmlns="http://www.w3.org/2000/svg">
<g clip-path="url(#clip0_13_332)">
<path d="M0.500008 -1L0.5 447" stroke="#41424A"/>
<path d="M32.5 -1L32.5 447" stroke="#41424A"/>
<path d="M64.5 -1L64.5 447" stroke="#41424A"/>
<path d="M96.5 -1L96.5 447" stroke="#41424A"/>
<path d="M128.5 -1L128.5 447" stroke="#41424A"/>
<path d="M160.5 -1L160.5 447" stroke="#41424A"/>
<path d="M192.5 -1L192.5 447" stroke="#41424A"/>
<path d="M224.5 -1L224.5 447" stroke="#41424A"/>
<path d="M256.5 -1L256.5 447" stroke="#41424A"/>
<path d="M288.5 -1L288.5 447" stroke="#41424A"/>
<path d="M320.5 -1L320.5 447" stroke="#41424A"/>
<path d="M352.5 -1L352.5 447" stroke="#41424A"/>
<path d="M384.5 -1L384.5 447" stroke="#41424A"/>
<path d="M416.5 -1L416.5 447" stroke="#41424A"/>
<path d="M448.5 -1L448.5 447" stroke="#41424A"/>
<path d="M480.5 -1L480.5 447" stroke="#41424A"/>
<path d="M512.5 -1L512.5 447" stroke="#41424A"/>
<path d="M544.5 -1L544.5 447" stroke="#41424A"/>
<line y1="31.5" x2="801" y2="31.5" stroke="#41424A"/>
<line y1="63.5" x2="801" y2="63.5" stroke="#41424A"/>
<line y1="95.5" x2="801" y2="95.5" stroke="#41424A"/>
<line y1="127.5" x2="801" y2="127.5" stroke="#41424A"/>
<line y1="159.5" x2="801" y2="159.5" stroke="#41424A"/>
<line y1="191.5" x2="801" y2="191.5" stroke="#41424A"/>
<line y1="223.5" x2="801" y2="223.5" stroke="#41424A"/>
<line y1="255.5" x2="801" y2="255.5" stroke="#41424A"/>
<line y1="287.5" x2="801" y2="287.5" stroke="#41424A"/>
<line y1="319.5" x2="801" y2="319.5" stroke="#41424A"/>
<path d="M33 97H193V129H320V288H33V97Z" fill="#703FFF" fill-opacity="0.6"/>
<rect x="225" y="97" width="31" height="31" fill="#703FFF" fill-opacity="0.6"/>
<rect x="257" y="65" width="31" height="31" fill="#703FFF" fill-opacity="0.6"/>
<rect x="289" y="33" width="31" height="31" fill="#703FFF" fill-opacity="0.6"/>
<rect x="225" y="33" width="31" height="31" fill="#703FFF" fill-opacity="0.6"/>
<rect x="321" y="65" width="63" height="63" fill="#703FFF" fill-opacity="0.6"/>
<path d="M68.624 144.288V142.128H66.44V128.856H68.864V141.888H75.152V139.704H77.6V142.128H75.392V144.288H68.624ZM81.9599 144.288V142.128H79.7759V135.384H81.9599V133.2H88.7279V135.384H90.9359V142.128H88.7279V144.288H81.9599ZM82.1999 141.888H88.4879V135.6H82.1999V141.888ZM96.0224 144.288V142.128H93.8384V135.384H96.0224V133.2H102.79V135.384H104.998V137.76H102.55V135.6H96.2624V141.888H102.55V139.704H104.998V142.128H102.79V144.288H96.0224ZM109.358 144.288V142.128H107.174V135.384H109.358V133.2H116.126V135.384H118.334V141.888H120.518V144.288H118.094V142.128H116.126V144.288H109.358ZM109.598 141.888H115.886V135.6H109.598V141.888ZM125.112 144.288V142.128H122.952V135.6H120.768V133.2H122.952V128.856H125.352V133.2H131.928V135.6H125.352V141.888H131.688V139.704H134.112V142.128H131.928V144.288H125.112ZM137.01 144.288V133.2H139.434V144.288H137.01ZM137.01 131.28V128.856H139.434V131.28H137.01ZM144.046 144.288V142.128H141.862V135.384H144.046V133.2H150.814V135.384H153.022V142.128H150.814V144.288H144.046ZM144.286 141.888H150.574V135.6H144.286V141.888ZM155.924 144.288V133.2H164.876V135.384H167.084V144.288H164.636V135.6H158.348V144.288H155.924Z" fill="white"/>
<path d="M115.1 245.08H66.8V239.5H87.38V230.98C77.6 229.84 71.36 224.14 71.36 216.34C71.36 207.7 79.16 201.64 90.98 201.64C102.86 201.64 110.6 207.7 110.6 216.34C110.6 224.2 104.3 229.96 94.4 230.98V239.5H115.1V245.08ZM103.52 216.4C103.52 211.06 98.6 207.4 90.98 207.4C83.42 207.4 78.5 211.06 78.5 216.4C78.5 221.8 83.42 225.4 90.98 225.4C98.54 225.4 103.52 221.8 103.52 216.4ZM162.334 251.74H155.314V198.28H162.334V251.74ZM151.294 234.34L147.214 239.62C142.834 236.92 137.254 230.44 135.454 224.86C133.714 230.98 128.194 237.76 122.674 240.76L118.414 235.6C127.054 230.02 131.674 221.56 131.674 210.94V202.78H138.934V210.58C138.934 221.14 143.194 229.12 151.294 234.34ZM217.728 230.26H169.428V224.62H217.728V230.26ZM211.788 218.62H175.908V200.02H182.928V213.04H211.788V218.62ZM212.148 250.3H175.608V234.52H182.568V244.72H212.148V250.3ZM281.564 251.08H244.604V237.04H273.044V233.74H244.244V228.22H280.064V242.2H251.624V245.44H281.564V251.08ZM280.064 225.34H273.104V198.28H280.064V225.34ZM263.924 200.56C263.864 215.68 251.864 223.84 239.924 226.36L236.444 220.66C246.044 219.34 254.324 214.06 256.184 206.38H239.084V200.56H263.924Z" fill="white"/>
</g>
<defs>
<clipPath id="clip0_13_332">
<rect width="545" height="320" fill="white"/>
</clipPath>
</defs>
</svg>
